<svg width="440" height="300" viewBox="0 0 440 300" fill="none" xmlns="http://www.w3.org/2000/svg">
<rect width="440" height="300" rx="10" fill="#A1F2EC"/>
<mask id="mask0_11_234" style="mask-type:alpha" maskUnits="userSpaceOnUse" x="0" y="0" width="440" height="300">
<rect width="440" height="300" rx="10" fill="#BFCAFF"/>
</mask>
<g mask="url(#mask0_11_234)">
<path fill-rule="evenodd" clip-rule="evenodd" d="M529 63.5737C529 85.6719 512.919 104.014 491.821 107.537C512.919 111.06 529 129.402 529 151.5C529 173.598 512.919 191.94 491.821 195.463C512.919 198.986 529 217.329 529 239.426C529 264.043 509.043 284 484.426 284C462.329 284 443.986 267.919 440.463 246.821C436.94 267.919 418.598 284 396.5 284C374.402 284 356.06 267.919 352.537 246.821C349.014 267.919 330.672 284 308.574 284C283.956 284 264 264.043 264 239.426C264 217.329 280.081 198.986 301.179 195.463C280.081 191.94 264 173.598 264 151.5C264 129.402 280.081 111.06 301.179 107.537C280.081 104.014 264 85.6719 264 63.5737C264 38.9563 283.956 19 308.574 19C330.672 19 349.014 35.0809 352.537 56.1788C356.06 35.0809 374.402 19 396.5 19C418.598 19 436.94 35.0809 440.463 56.1788C443.986 35.0809 462.329 19 484.426 19C509.043 19 529 38.9563 529 63.5737ZM352.537 70.9687C349.415 89.6615 334.661 104.415 315.969 107.537C334.661 110.658 349.415 125.413 352.537 144.106C355.658 125.413 370.413 110.658 389.106 107.537C370.413 104.415 355.658 89.6615 352.537 70.9687ZM403.894 107.537C422.587 104.415 437.342 89.6615 440.463 70.9687C443.585 89.6615 458.339 104.415 477.032 107.537C458.339 110.658 443.585 125.413 440.463 144.106C437.342 125.413 422.587 110.658 403.894 107.537ZM440.463 232.032C443.585 213.339 458.339 198.585 477.032 195.463C458.339 192.342 443.585 177.587 440.463 158.894C437.342 177.587 422.587 192.342 403.894 195.463C422.587 198.585 437.342 213.339 440.463 232.032ZM352.537 158.894C355.658 177.587 370.413 192.342 389.106 195.463C370.413 198.585 355.658 213.339 352.537 232.032C349.415 213.339 334.661 198.585 315.969 195.463C334.661 192.342 349.415 177.587 352.537 158.894Z" fill="#A9F7F1"/>
<path fill-rule="evenodd" clip-rule="evenodd" d="M264 63.5737C264 85.6719 247.859 104.014 226.68 107.537C247.859 111.06 264 129.402 264 151.5C264 173.598 247.859 191.94 226.68 195.463C247.859 198.986 264 217.329 264 239.426C264 264.043 243.968 284 219.258 284C197.077 284 178.665 267.919 175.129 246.821C171.593 267.919 153.181 284 131 284C108.819 284 90.4074 267.919 86.871 246.821C83.3345 267.919 64.9235 284 42.7419 284C18.0316 284 -2 264.043 -2 239.426C-2 217.329 14.1415 198.986 35.3191 195.463C14.1415 191.94 -2 173.598 -2 151.5C-2 129.402 14.1415 111.06 35.3191 107.537C14.1415 104.014 -2 85.6719 -2 63.5737C-2 38.9563 18.0316 19 42.7419 19C64.9235 19 83.3345 35.0809 86.871 56.1788C90.4074 35.0809 108.819 19 131 19C153.181 19 171.593 35.0809 175.129 56.1788C178.665 35.0809 197.077 19 219.258 19C243.968 19 264 38.9563 264 63.5737ZM86.871 70.9687C83.7378 89.6615 68.9281 104.415 50.1648 107.537C68.9281 110.658 83.7378 125.413 86.871 144.106C90.0041 125.413 104.814 110.658 123.578 107.537C104.814 104.415 90.0041 89.6615 86.871 70.9687ZM138.422 107.537C157.186 104.415 171.996 89.6615 175.129 70.9687C178.262 89.6615 193.072 104.415 211.836 107.537C193.072 110.658 178.262 125.413 175.129 144.106C171.996 125.413 157.186 110.658 138.422 107.537ZM175.129 232.032C178.262 213.339 193.072 198.585 211.836 195.463C193.072 192.342 178.262 177.587 175.129 158.894C171.996 177.587 157.186 192.342 138.422 195.463C157.186 198.585 171.996 213.339 175.129 232.032ZM86.871 158.894C90.0041 177.587 104.814 192.342 123.578 195.463C104.814 198.585 90.0041 213.339 86.871 232.032C83.7378 213.339 68.9281 198.585 50.1648 195.463C68.9281 192.342 83.7378 177.587 86.871 158.894Z" fill="#A9F7F1"/>
</g>
</svg>
