<svg width="440" height="300" viewBox="0 0 440 300" fill="none" xmlns="http://www.w3.org/2000/svg">
<rect width="440" height="300" rx="10" fill="#FFB245"/>
<mask id="mask0_0_561" style="mask-type:alpha" maskUnits="userSpaceOnUse" x="0" y="0" width="440" height="300">
<rect width="440" height="300" rx="20" fill="#FFBA59"/>
</mask>
<g mask="url(#mask0_0_561)">
<path d="M297.894 -15L316.157 22.8289L358.202 28.3067L327.445 57.164L335.166 98.3784L297.894 78.3843L260.622 98.3784L268.343 57.164L237.586 28.3067L279.63 22.8289L297.894 -15Z" fill="#FFBA59"/>
<path d="M297.894 241.595L316.157 279.424L358.202 284.901L327.445 313.759L335.166 354.973L297.894 334.979L260.622 354.973L268.343 313.759L237.586 284.901L279.63 279.424L297.894 241.595Z" fill="#FFBA59"/>
<path d="M297.894 110.348L316.157 148.622L358.202 154.164L327.445 183.361L335.166 225.06L297.894 204.831L260.622 225.06L268.343 183.361L237.586 154.164L279.63 148.622L297.894 110.348Z" fill="#FFBA59"/>
<path d="M46.4592 -15L64.5102 22.8289L106.066 28.3067L75.6664 57.164L83.298 98.3784L46.4592 78.3843L9.62032 98.3784L17.252 57.164L-13.1474 28.3067L28.4081 22.8289L46.4592 -15Z" fill="#FFBA59"/>
<path d="M46.4592 241.595L64.5102 279.424L106.066 284.901L75.6664 313.759L83.298 354.973L46.4592 334.979L9.62032 354.973L17.252 313.759L-13.1474 284.901L28.4081 279.424L46.4592 241.595Z" fill="#FFBA59"/>
<path d="M423.978 -15L442.03 22.8289L483.585 28.3067L453.186 57.164L460.817 98.3784L423.978 78.3843L387.14 98.3784L394.771 57.164L364.372 28.3067L405.927 22.8289L423.978 -15Z" fill="#FFBA59"/>
<path d="M423.978 241.595L442.03 279.424L483.585 284.902L453.186 313.759L460.817 354.973L423.978 334.979L387.14 354.973L394.771 313.759L364.372 284.902L405.927 279.424L423.978 241.595Z" fill="#FFBA59"/>
<path d="M44.9846 110.348L63.0356 148.622L104.591 154.164L74.1918 183.361L81.8234 225.06L44.9846 204.831L8.14571 225.06L15.7774 183.361L-14.622 154.164L26.9335 148.622L44.9846 110.348Z" fill="#FFBA59"/>
<path d="M422.504 110.348L440.555 148.622L482.111 154.164L451.711 183.361L459.343 225.06L422.504 204.831L385.665 225.06L393.297 183.361L362.898 154.164L404.453 148.622L422.504 110.348Z" fill="#FFBA59"/>
<path d="M171.07 -15L189.333 22.8289L231.377 28.3067L200.62 57.164L208.342 98.3784L171.07 78.3843L133.797 98.3784L141.519 57.164L110.762 28.3067L152.806 22.8289L171.07 -15Z" fill="#FFBA59"/>
<path d="M171.07 241.595L189.333 279.424L231.377 284.901L200.62 313.759L208.342 354.973L171.07 334.979L133.797 354.973L141.519 313.759L110.762 284.901L152.806 279.424L171.07 241.595Z" fill="#FFBA59"/>
<path d="M170.332 110.348L188.383 148.622L229.939 154.164L199.539 183.361L207.171 225.06L170.332 204.831L133.493 225.06L141.125 183.361L110.726 154.164L152.281 148.622L170.332 110.348Z" fill="#FFBA59"/>
</g>
</svg>
