<svg width="440" height="300" viewBox="0 0 440 300" fill="none" xmlns="http://www.w3.org/2000/svg">
<rect width="440" height="300" rx="10" fill="#FE74EA"/>
<mask id="mask0_0_597" style="mask-type:alpha" maskUnits="userSpaceOnUse" x="0" y="0" width="440" height="300">
<rect width="440" height="300" rx="20" fill="#FE74EA"/>
</mask>
<g mask="url(#mask0_0_597)">
<path fill-rule="evenodd" clip-rule="evenodd" d="M28.1529 -15.0223C58.869 -15.0223 83.7687 11.4255 83.7687 44.0505C83.7687 76.6754 58.869 103.123 28.1529 103.123C-2.56318 103.123 -27.4629 76.6754 -27.4629 44.0505C-27.4629 11.4255 -2.56318 -15.0223 28.1529 -15.0223ZM-64.7597 288.35C-89.6094 269.174 -95.118 232.232 -77.0637 205.837C-59.0095 179.443 -24.2293 173.592 0.620476 192.769C25.4702 211.945 30.9786 248.888 12.925 275.282C-5.12963 301.676 -39.9102 307.527 -64.7597 288.35ZM133.55 205.837C151.604 232.232 146.096 269.174 121.246 288.35C96.3964 307.527 61.6156 301.676 43.5621 275.282C25.5074 248.888 31.0158 211.945 55.8655 192.769C80.7152 173.592 115.496 179.443 133.55 205.837ZM-122.263 100.766C-112.771 69.7384 -81.3954 52.7578 -52.1829 62.8395C-22.9704 72.9212 -6.98357 106.248 -16.4753 137.276C-25.967 168.303 -57.343 185.284 -86.5554 175.202C-115.768 165.121 -131.755 131.795 -122.263 100.766ZM108.451 62.8395C137.664 52.7578 169.039 69.7384 178.531 100.766C188.023 131.795 172.036 165.121 142.824 175.202C113.611 185.284 82.2356 168.303 72.7439 137.276C63.2522 106.248 79.2391 72.9212 108.451 62.8395Z" fill="#FF7CEC"/>
<path fill-rule="evenodd" clip-rule="evenodd" d="M336.52 -15.0225C367.657 -15.0225 392.898 11.4254 392.898 44.0503C392.898 76.6753 367.657 103.123 336.52 103.123C305.384 103.123 280.143 76.6753 280.143 44.0503C280.143 11.4254 305.384 -15.0225 336.52 -15.0225ZM242.335 288.35C217.145 269.174 211.561 232.232 229.862 205.837C248.164 179.443 283.421 173.592 308.611 192.769C333.801 211.945 339.385 248.888 321.084 275.282C302.782 301.676 267.525 307.527 242.335 288.35ZM443.361 205.837C461.663 232.232 456.079 269.174 430.889 288.35C405.699 307.527 370.442 301.676 352.141 275.282C333.839 248.888 339.423 211.945 364.613 192.769C389.803 173.592 425.06 179.443 443.361 205.837ZM184.044 100.766C193.666 69.7383 225.471 52.7577 255.084 62.8394C284.697 72.921 300.903 106.248 291.281 137.275C281.659 168.303 249.853 185.284 220.241 175.202C190.628 165.12 174.422 131.795 184.044 100.766ZM417.919 62.8394C447.532 52.7577 479.337 69.7383 488.959 100.766C498.58 131.795 482.374 165.12 452.762 175.202C423.149 185.284 391.344 168.303 381.722 137.275C372.101 106.248 388.306 72.921 417.919 62.8394Z" fill="#FF7CEC"/>
</g>
</svg>
