<svg width="214" height="464" viewBox="0 0 214 464" fill="none" xmlns="http://www.w3.org/2000/svg">
<path d="M159.951 6.82853C161.444 3.95486 165.556 3.95486 167.049 6.82853L181.583 34.7912C181.901 35.4034 182.373 35.923 182.951 36.2993L208.847 53.1472C211.271 54.7248 211.271 58.2752 208.847 59.8528L182.951 76.7007C182.373 77.077 181.901 77.5966 181.583 78.2088L167.049 106.171C165.556 109.045 161.444 109.045 159.951 106.171L145.417 78.2088C145.099 77.5966 144.627 77.077 144.049 76.7007L118.153 59.8528C115.729 58.2752 115.729 54.7248 118.153 53.1472L144.049 36.2993C144.627 35.923 145.099 35.4034 145.417 34.7912L159.951 6.82853Z" fill="#FFE047"/>
<path d="M34.9521 384.814C36.4466 381.944 40.5534 381.944 42.0479 384.814L52.1701 404.255C52.4888 404.867 52.9604 405.387 53.5392 405.763L71.8351 417.645C74.2634 419.223 74.2634 422.777 71.8351 424.355L53.5392 436.237C52.9605 436.613 52.4888 437.133 52.1701 437.745L42.0479 457.186C40.5534 460.056 36.4466 460.056 34.9521 457.186L24.8299 437.745C24.5112 437.133 24.0395 436.613 23.4608 436.237L5.16495 424.355C2.73661 422.777 2.7366 419.223 5.16495 417.645L23.4608 405.763C24.0395 405.387 24.5112 404.867 24.8299 404.255L34.9521 384.814Z" fill="#FFE047"/>
</svg>
