<svg width="83" height="94" viewBox="0 0 83 94" fill="none" xmlns="http://www.w3.org/2000/svg">
<path d="M40.4988 12.7915C41.2269 9.66457 45.1567 8.62645 47.3341 10.9858L52.3792 16.4525C52.8479 16.9604 53.4402 17.3382 54.0984 17.5491L61.7206 19.9906C64.5037 20.8821 65.4224 24.36 63.4427 26.5097L58.0208 32.3971C57.5526 32.9055 57.2241 33.5265 57.0674 34.1997L55.3804 41.4448C54.6523 44.5717 50.7225 45.6098 48.5451 43.2504L43.5 37.7838C43.0313 37.2759 42.4389 36.8981 41.7807 36.6872L34.1586 34.2456C31.3755 33.3542 30.4567 29.8763 32.4364 27.7266L37.8583 21.8392C38.3265 21.3308 38.655 20.7097 38.8118 20.0366L40.4988 12.7915Z" fill="#FFE047"/>
<path d="M24.9054 66.155C25.6172 62.9981 29.5879 61.9492 31.7659 64.3426L33.5258 66.2766C33.9902 66.787 34.5789 67.1686 35.2345 67.3842L38.594 68.4891C41.3447 69.3938 42.2526 72.8306 40.3076 74.9757L37.932 77.5957C37.4685 78.107 37.1451 78.7295 36.9933 79.4027L36.4181 81.9535C35.7063 85.1103 31.7356 86.1593 29.5576 83.7658L27.7978 81.8319C27.3333 81.3214 26.7446 80.9399 26.089 80.7243L22.7295 79.6193C19.9788 78.7147 19.0709 75.2778 21.0159 73.1327L23.3915 70.5128C23.855 70.0015 24.1784 69.379 24.3302 68.7058L24.9054 66.155Z" fill="#FFE047"/>
</svg>
