<svg width="440" height="300" viewBox="0 0 440 300" fill="none" xmlns="http://www.w3.org/2000/svg">
<rect width="440" height="300" rx="10" fill="#F9F761"/>
<mask id="mask0_0_544" style="mask-type:alpha" maskUnits="userSpaceOnUse" x="0" y="0" width="440" height="300">
<rect x="0.5" y="0.5" width="439" height="299" rx="19.5" fill="#FDFB74" stroke="#FDFB74"/>
</mask>
<g mask="url(#mask0_0_544)">
<path d="M112.245 76.8803C113.069 76.8078 113.513 78.3353 112.245 79.1327C111.125 79.9825 108.506 79.365 107.758 76.8803C106.869 74.5335 108.578 70.8619 112.245 70.1239C115.765 69.2051 120.53 71.9815 121.218 76.8803C122.174 81.6174 118.308 87.4865 112.245 88.1423C106.326 89.1336 99.4087 84.1738 98.7845 76.8803C97.7508 69.737 103.793 61.7064 112.245 61.1142C120.551 60.0583 129.647 67.1806 130.19 76.8803C131.284 86.4436 123.097 96.6201 112.245 97.152C101.524 98.2804 90.3119 88.9921 89.8116 76.8803C88.6715 64.9326 98.9774 52.5552 112.245 52.1045C125.366 50.9115 138.728 62.3623 139.163 76.8803C140.381 91.2402 127.904 105.776 112.245 106.162C96.7338 107.414 81.1976 93.8053 80.8388 76.8803C79.5572 60.1142 94.1872 43.4171 112.245 43.0949C130.152 41.7612 147.841 57.5578 148.136 76.8803C149.482 96.0446 132.699 114.926 112.245 115.17C91.94 116.565 72.0972 98.6149 71.8659 76.8803C70.456 55.2923 89.3978 34.2834 112.245 34.0861C134.941 32.6441 156.955 52.722 157.109 76.8803C158.596 100.876 137.484 124.047 112.245 124.18C87.1542 125.686 62.9828 103.446 62.8932 76.8803C61.3421 50.4827 84.6076 25.1363 112.245 25.0762C139.732 23.4846 166.057 47.9298 166.082 76.8803C167.697 105.685 142.278 133.199 112.245 133.19C82.3648 134.837 53.869 108.255 53.9202 76.8803C52.2281 45.6696 79.8217 15.9982 112.245 16.0668C144.538 14.3507 175.153 43.1123 175.055 76.8803C176.794 110.494 147.085 142.345 112.245 142.199C77.5492 143.988 44.7892 113.06 44.9473 76.8803C43.1484 40.8599 75.007 6.8471 112.245 7.05731C149.328 5.19966 184.267 38.3071 184.028 76.8803C185.904 115.321 151.874 151.479 112.245 151.208C72.7633 153.126 35.6709 117.874 35.9743 76.8803C34.0345 36.0424 70.2168 -2.29961 112.245 -1.9521C154.122 -3.94704 193.368 33.4896 193.001 76.8803C195.005 120.143 156.669 160.613 112.245 160.218C67.9775 162.26 26.5571 122.7 27.0014 76.8803C24.9162 31.2066 65.4312 -11.4164 112.245 -10.9616C158.912 -13.0681 202.478 28.6542 201.973 76.8803C204.123 124.952 161.454 169.764 112.245 169.228C63.1795 171.407 17.4602 127.509 18.0285 76.8803C15.8194 26.4019 60.6371 -20.5673 112.245 -19.971C163.698 -22.2191 211.591 23.8492 210.946 76.8803C213.237 129.766 166.24 178.902 112.245 178.237C58.3768 180.549 8.3633 132.319 9.05552 76.8803C6.72255 21.6097 55.8301 -29.727 112.245 -28.9805C168.513 -31.3658 220.676 19.0399 219.919 76.8803C222.316 134.572 171.055 188.053 112.245 187.246C53.5869 189.7 -0.750564 137.128 0.0826435 76.8803C-2.3914 16.7832 51.0403 -38.8608 112.245 -37.9899" fill="#FDFB74"/>
<path d="M112.245 76.8803C113.069 76.8078 113.513 78.3353 112.245 79.1327C111.125 79.9825 108.506 79.365 107.758 76.8803C106.869 74.5335 108.578 70.8619 112.245 70.1239C115.765 69.2051 120.53 71.9815 121.218 76.8803C122.174 81.6174 118.308 87.4865 112.245 88.1424C106.326 89.1336 99.4087 84.1738 98.7845 76.8803C97.7508 69.737 103.793 61.7063 112.245 61.1142C120.551 60.0583 129.647 67.1806 130.19 76.8803C131.284 86.4436 123.097 96.6201 112.245 97.152C101.524 98.2804 90.3119 88.9921 89.8116 76.8803C88.6715 64.9326 98.9774 52.5552 112.245 52.1045C125.366 50.9115 138.728 62.3623 139.163 76.8803C140.381 91.2402 127.904 105.776 112.245 106.162C96.7338 107.414 81.1976 93.8053 80.8388 76.8803C79.5572 60.1142 94.1872 43.4171 112.245 43.0949C130.152 41.7612 147.841 57.5578 148.136 76.8803C149.482 96.0446 132.699 114.926 112.245 115.17C91.94 116.565 72.0972 98.6149 71.8659 76.8803C70.456 55.2923 89.3978 34.2834 112.245 34.0861C134.941 32.6441 156.955 52.722 157.109 76.8803C158.596 100.876 137.484 124.047 112.245 124.18C87.1542 125.686 62.9828 103.446 62.8932 76.8803C61.3421 50.4827 84.6076 25.1363 112.245 25.0762C139.732 23.4846 166.057 47.9298 166.082 76.8803C167.697 105.685 142.278 133.199 112.245 133.19C82.3648 134.837 53.869 108.255 53.9202 76.8803C52.2281 45.6696 79.8217 15.9982 112.245 16.0668C144.538 14.3507 175.153 43.1123 175.055 76.8803C176.794 110.494 147.085 142.345 112.245 142.199C77.5492 143.988 44.7892 113.06 44.9473 76.8803C43.1484 40.8599 75.007 6.84709 112.245 7.05731C149.328 5.19966 184.267 38.3071 184.028 76.8803C185.904 115.321 151.874 151.479 112.245 151.208C72.7633 153.126 35.6709 117.874 35.9743 76.8803C34.0345 36.0424 70.2168 -2.29961 112.245 -1.9521C154.122 -3.94704 193.368 33.4896 193.001 76.8803C195.005 120.143 156.669 160.613 112.245 160.218C67.9775 162.26 26.5571 122.7 27.0014 76.8803C24.9162 31.2066 65.4312 -11.4164 112.245 -10.9616C158.912 -13.0681 202.478 28.6542 201.973 76.8803C204.123 124.952 161.454 169.764 112.245 169.228C63.1794 171.407 17.4602 127.509 18.0285 76.8803C15.8194 26.4019 60.6371 -20.5673 112.245 -19.971C163.698 -22.2191 211.591 23.8492 210.946 76.8803C213.237 129.766 166.24 178.902 112.245 178.237C58.3768 180.549 8.3633 132.319 9.05552 76.8803C6.72255 21.6097 55.8301 -29.727 112.245 -28.9805C168.513 -31.3658 220.676 19.0399 219.919 76.8803C222.316 134.571 171.055 188.053 112.245 187.246C53.5869 189.7 -0.750564 137.128 0.0826435 76.8803C-2.3914 16.7832 51.0403 -38.8608 112.245 -37.9899" stroke="#FDFB74" stroke-width="12" stroke-linecap="round"/>
<path d="M332.245 76.8803C333.069 76.8078 333.513 78.3353 332.245 79.1327C331.125 79.9825 328.506 79.365 327.758 76.8803C326.869 74.5335 328.578 70.8619 332.245 70.1239C335.765 69.2051 340.53 71.9815 341.218 76.8803C342.174 81.6174 338.308 87.4865 332.245 88.1423C326.326 89.1336 319.409 84.1738 318.784 76.8803C317.751 69.737 323.793 61.7064 332.245 61.1142C340.551 60.0583 349.647 67.1806 350.19 76.8803C351.284 86.4436 343.097 96.6201 332.245 97.152C321.524 98.2804 310.312 88.9921 309.812 76.8803C308.671 64.9326 318.977 52.5552 332.245 52.1045C345.366 50.9115 358.728 62.3623 359.163 76.8803C360.381 91.2402 347.904 105.776 332.245 106.162C316.734 107.414 301.198 93.8053 300.839 76.8803C299.557 60.1142 314.187 43.4171 332.245 43.0949C350.152 41.7612 367.841 57.5578 368.136 76.8803C369.482 96.0446 352.699 114.926 332.245 115.17C311.94 116.565 292.097 98.6149 291.866 76.8803C290.456 55.2923 309.398 34.2834 332.245 34.0861C354.941 32.6441 376.955 52.722 377.109 76.8803C378.596 100.876 357.484 124.047 332.245 124.18C307.154 125.686 282.983 103.446 282.893 76.8803C281.342 50.4827 304.608 25.1363 332.245 25.0762C359.732 23.4846 386.057 47.9298 386.082 76.8803C387.697 105.685 362.278 133.199 332.245 133.19C302.365 134.837 273.869 108.255 273.92 76.8803C272.228 45.6696 299.822 15.9982 332.245 16.0668C364.538 14.3507 395.153 43.1123 395.055 76.8803C396.794 110.494 367.085 142.345 332.245 142.199C297.549 143.988 264.789 113.06 264.947 76.8803C263.148 40.8599 295.007 6.8471 332.245 7.05731C369.328 5.19966 404.267 38.3071 404.028 76.8803C405.904 115.321 371.874 151.479 332.245 151.208C292.763 153.126 255.671 117.874 255.974 76.8803C254.034 36.0424 290.217 -2.29961 332.245 -1.9521C374.122 -3.94704 413.368 33.4896 413.001 76.8803C415.005 120.143 376.669 160.613 332.245 160.218C287.977 162.26 246.557 122.7 247.001 76.8803C244.916 31.2066 285.431 -11.4164 332.245 -10.9616C378.912 -13.0681 422.478 28.6542 421.973 76.8803C424.123 124.952 381.454 169.764 332.245 169.228C283.179 171.407 237.46 127.509 238.028 76.8803C235.819 26.4019 280.637 -20.5673 332.245 -19.971C383.698 -22.2191 431.591 23.8492 430.946 76.8803C433.237 129.766 386.24 178.902 332.245 178.237C278.377 180.549 228.363 132.319 229.056 76.8803C226.723 21.6097 275.83 -29.727 332.245 -28.9805C388.513 -31.3658 440.676 19.0399 439.919 76.8803C442.316 134.572 391.055 188.053 332.245 187.246C273.587 189.7 219.249 137.128 220.083 76.8803C217.609 16.7832 271.04 -38.8608 332.245 -37.9899" fill="#FDFB74"/>
<path d="M332.245 76.8803C333.069 76.8078 333.513 78.3353 332.245 79.1327C331.125 79.9825 328.506 79.365 327.758 76.8803C326.869 74.5335 328.578 70.8619 332.245 70.1239C335.765 69.2051 340.53 71.9815 341.218 76.8803C342.174 81.6174 338.308 87.4865 332.245 88.1424C326.326 89.1336 319.409 84.1738 318.784 76.8803C317.751 69.737 323.793 61.7063 332.245 61.1142C340.551 60.0583 349.647 67.1806 350.19 76.8803C351.284 86.4436 343.097 96.6201 332.245 97.152C321.524 98.2804 310.312 88.9921 309.812 76.8803C308.671 64.9326 318.977 52.5552 332.245 52.1045C345.366 50.9115 358.728 62.3623 359.163 76.8803C360.381 91.2402 347.904 105.776 332.245 106.162C316.734 107.414 301.198 93.8053 300.839 76.8803C299.557 60.1142 314.187 43.4171 332.245 43.0949C350.152 41.7612 367.841 57.5578 368.136 76.8803C369.482 96.0446 352.699 114.926 332.245 115.17C311.94 116.565 292.097 98.6149 291.866 76.8803C290.456 55.2923 309.398 34.2834 332.245 34.0861C354.941 32.6441 376.955 52.722 377.109 76.8803C378.596 100.876 357.484 124.047 332.245 124.18C307.154 125.686 282.983 103.446 282.893 76.8803C281.342 50.4827 304.608 25.1363 332.245 25.0762C359.732 23.4846 386.057 47.9298 386.082 76.8803C387.697 105.685 362.278 133.199 332.245 133.19C302.365 134.837 273.869 108.255 273.92 76.8803C272.228 45.6696 299.822 15.9982 332.245 16.0668C364.538 14.3507 395.153 43.1123 395.055 76.8803C396.794 110.494 367.085 142.345 332.245 142.199C297.549 143.988 264.789 113.06 264.947 76.8803C263.148 40.8599 295.007 6.84709 332.245 7.05731C369.328 5.19966 404.267 38.3071 404.028 76.8803C405.904 115.321 371.874 151.479 332.245 151.208C292.763 153.126 255.671 117.874 255.974 76.8803C254.034 36.0424 290.217 -2.29961 332.245 -1.9521C374.122 -3.94704 413.368 33.4896 413.001 76.8803C415.005 120.143 376.669 160.613 332.245 160.218C287.977 162.26 246.557 122.7 247.001 76.8803C244.916 31.2066 285.431 -11.4164 332.245 -10.9616C378.912 -13.0681 422.478 28.6542 421.973 76.8803C424.123 124.952 381.454 169.764 332.245 169.228C283.179 171.407 237.46 127.509 238.028 76.8803C235.819 26.4019 280.637 -20.5673 332.245 -19.971C383.698 -22.2191 431.591 23.8492 430.946 76.8803C433.237 129.766 386.24 178.902 332.245 178.237C278.377 180.549 228.363 132.319 229.056 76.8803C226.723 21.6097 275.83 -29.727 332.245 -28.9805C388.513 -31.3658 440.676 19.0399 439.919 76.8803C442.316 134.571 391.055 188.053 332.245 187.246C273.587 189.7 219.249 137.128 220.083 76.8803C217.609 16.7832 271.04 -38.8608 332.245 -37.9899" stroke="#FDFB74" stroke-width="12" stroke-linecap="round"/>
<path d="M327.755 303.448C326.931 303.521 326.487 301.993 327.755 301.196C328.875 300.346 331.494 300.964 332.242 303.448C333.131 305.795 331.422 309.467 327.755 310.205C324.235 311.124 319.47 308.347 318.782 303.448C317.826 298.711 321.692 292.842 327.755 292.186C333.674 291.195 340.591 296.155 341.216 303.448C342.249 310.592 336.207 318.622 327.755 319.214C319.449 320.27 310.353 313.148 309.81 303.448C308.716 293.885 316.903 283.708 327.755 283.177C338.476 282.048 349.688 291.336 350.188 303.448C351.329 315.396 341.023 327.773 327.755 328.224C314.634 329.417 301.272 317.966 300.837 303.448C299.619 289.088 312.096 274.553 327.755 274.167C343.266 272.915 358.802 286.523 359.161 303.448C360.443 320.214 345.813 336.911 327.755 337.234C309.848 338.567 292.159 322.771 291.864 303.448C290.518 284.284 307.301 265.403 327.755 265.158C348.06 263.763 367.903 281.714 368.134 303.448C369.544 325.036 350.602 346.045 327.755 346.243C305.059 347.684 283.045 327.607 282.891 303.448C281.404 279.453 302.516 256.281 327.755 256.148C352.846 254.643 377.017 276.883 377.107 303.448C378.658 329.846 355.392 355.192 327.755 355.252C300.268 356.844 273.943 332.399 273.918 303.448C272.303 274.644 297.722 247.13 327.755 247.139C357.635 245.492 386.131 272.073 386.08 303.448C387.772 334.659 360.178 364.33 327.755 364.262C295.462 365.978 264.847 337.216 264.945 303.448C263.206 269.834 292.915 237.983 327.755 238.129C362.451 236.34 395.211 267.268 395.053 303.448C396.852 339.469 364.993 373.482 327.755 373.271C290.672 375.129 255.733 342.022 255.972 303.448C254.096 265.008 288.126 228.85 327.755 229.12C367.237 227.202 404.329 262.455 404.026 303.448C405.966 344.286 369.783 382.628 327.755 382.281C285.878 384.276 246.632 346.839 246.999 303.448C244.995 260.185 283.331 219.716 327.755 220.111C372.023 218.069 413.443 257.629 412.999 303.448C415.084 349.122 374.569 391.745 327.755 391.29C281.088 393.397 237.522 351.674 238.027 303.448C235.877 255.376 278.546 210.565 327.755 211.101C376.821 208.922 422.54 252.819 421.972 303.448C424.181 353.927 379.363 400.896 327.755 400.3C276.302 402.548 228.409 356.479 229.054 303.448C226.763 250.562 273.76 201.427 327.755 202.091C381.623 199.779 431.637 248.01 430.944 303.448C433.277 358.719 384.17 410.056 327.755 409.309C271.487 411.694 219.324 361.289 220.081 303.448C217.684 245.757 268.945 192.276 327.755 193.083C386.413 190.628 440.751 243.201 439.917 303.448C442.391 363.545 388.96 419.189 327.755 418.319" fill="#FDFB74"/>
<path d="M327.755 303.448C326.931 303.521 326.487 301.993 327.755 301.196C328.875 300.346 331.494 300.964 332.242 303.448C333.131 305.795 331.422 309.467 327.755 310.205C324.235 311.124 319.47 308.347 318.782 303.448C317.826 298.711 321.692 292.842 327.755 292.186C333.674 291.195 340.591 296.155 341.216 303.448C342.249 310.592 336.207 318.622 327.755 319.214C319.449 320.27 310.353 313.148 309.81 303.448C308.716 293.885 316.903 283.708 327.755 283.177C338.476 282.048 349.688 291.336 350.188 303.448C351.329 315.396 341.023 327.773 327.755 328.224C314.634 329.417 301.272 317.966 300.837 303.448C299.619 289.088 312.096 274.553 327.755 274.167C343.266 272.915 358.802 286.523 359.161 303.448C360.443 320.214 345.813 336.911 327.755 337.234C309.848 338.567 292.159 322.771 291.864 303.448C290.518 284.284 307.301 265.403 327.755 265.158C348.06 263.763 367.903 281.714 368.134 303.448C369.544 325.036 350.602 346.045 327.755 346.243C305.059 347.684 283.045 327.607 282.891 303.448C281.404 279.453 302.516 256.281 327.755 256.148C352.846 254.643 377.017 276.883 377.107 303.448C378.658 329.846 355.392 355.192 327.755 355.252C300.268 356.844 273.943 332.399 273.918 303.448C272.303 274.644 297.722 247.13 327.755 247.139C357.635 245.492 386.131 272.073 386.08 303.448C387.772 334.659 360.178 364.33 327.755 364.262C295.462 365.978 264.847 337.216 264.945 303.448C263.206 269.834 292.915 237.983 327.755 238.129C362.451 236.34 395.211 267.268 395.053 303.448C396.852 339.469 364.993 373.482 327.755 373.271C290.672 375.129 255.733 342.022 255.972 303.448C254.096 265.008 288.126 228.85 327.755 229.12C367.237 227.202 404.329 262.455 404.026 303.448C405.966 344.286 369.783 382.628 327.755 382.281C285.878 384.276 246.632 346.839 246.999 303.448C244.995 260.185 283.331 219.716 327.755 220.111C372.023 218.069 413.443 257.629 412.999 303.448C415.084 349.122 374.569 391.745 327.755 391.29C281.088 393.397 237.522 351.674 238.027 303.448C235.877 255.376 278.546 210.565 327.755 211.101C376.821 208.922 422.54 252.819 421.972 303.448C424.181 353.927 379.363 400.896 327.755 400.3C276.302 402.548 228.409 356.479 229.054 303.448C226.763 250.562 273.76 201.427 327.755 202.091C381.623 199.779 431.637 248.01 430.944 303.448C433.277 358.719 384.17 410.056 327.755 409.309C271.487 411.694 219.324 361.289 220.081 303.448C217.684 245.757 268.945 192.276 327.755 193.083C386.413 190.628 440.751 243.201 439.917 303.448C442.391 363.545 388.96 419.189 327.755 418.319" stroke="#FDFB74" stroke-width="12" stroke-linecap="round"/>
<path d="M107.755 303.448C106.931 303.521 106.487 301.993 107.755 301.196C108.875 300.346 111.494 300.964 112.242 303.448C113.131 305.795 111.422 309.467 107.755 310.205C104.235 311.124 99.4704 308.347 98.7824 303.448C97.8256 298.711 101.692 292.842 107.755 292.186C113.674 291.195 120.591 296.155 121.216 303.448C122.249 310.592 116.207 318.622 107.755 319.214C99.4494 320.27 90.3526 313.148 89.8096 303.448C88.7157 293.885 96.9028 283.708 107.755 283.177C118.476 282.048 129.688 291.336 130.188 303.448C131.329 315.396 121.023 327.773 107.755 328.224C94.6339 329.417 81.2723 317.966 80.8367 303.448C79.6189 289.088 92.096 274.553 107.755 274.167C123.266 272.915 138.802 286.523 139.161 303.448C140.443 320.214 125.813 336.911 107.755 337.234C89.848 338.567 72.1589 322.771 71.8638 303.448C70.5176 284.284 87.3014 265.403 107.755 265.158C128.06 263.763 147.903 281.714 148.134 303.448C149.544 325.036 130.602 346.045 107.755 346.243C85.0586 347.684 63.0446 327.607 62.891 303.448C61.4042 279.453 82.5164 256.281 107.755 256.148C132.846 254.643 157.017 276.883 157.107 303.448C158.658 329.846 135.392 355.192 107.755 355.252C80.2684 356.844 53.9434 332.399 53.9181 303.448C52.303 274.644 77.7218 247.13 107.755 247.139C137.635 245.492 166.131 272.073 166.08 303.448C167.772 334.659 140.178 364.33 107.755 364.262C75.4615 365.978 44.8466 337.216 44.9452 303.448C43.2062 269.834 72.9149 237.983 107.755 238.129C142.451 236.34 175.211 267.268 175.053 303.448C176.852 339.469 144.993 373.482 107.755 373.271C70.6722 375.129 35.7331 342.022 35.9724 303.448C34.0962 265.008 68.1256 228.85 107.755 229.12C147.237 227.202 184.329 262.455 184.026 303.448C185.966 344.286 149.783 382.628 107.755 382.281C65.8775 384.276 26.6319 346.839 26.9995 303.448C24.995 260.185 63.331 219.716 107.755 220.111C152.023 218.069 193.443 257.629 192.999 303.448C195.084 349.122 154.569 391.745 107.755 391.29C61.0882 393.397 17.522 351.674 18.0266 303.448C15.8772 255.376 58.5459 210.565 107.755 211.101C156.821 208.922 202.54 252.819 201.972 303.448C204.181 353.927 159.363 400.896 107.755 400.3C56.3023 402.548 8.40857 356.479 9.05373 303.448C6.76292 250.562 53.7601 201.427 107.755 202.091C161.623 199.779 211.637 248.01 210.944 303.448C213.277 358.719 164.17 410.056 107.755 409.309C51.4867 411.694 -0.676056 361.289 0.0808411 303.448C-2.31647 245.757 48.9445 192.276 107.755 193.083C166.413 190.628 220.751 243.201 219.917 303.448C222.391 363.545 168.96 419.189 107.755 418.319" fill="#FDFB74"/>
<path d="M107.755 303.448C106.931 303.521 106.487 301.993 107.755 301.196C108.875 300.346 111.494 300.964 112.242 303.448C113.131 305.795 111.422 309.467 107.755 310.205C104.235 311.124 99.4704 308.347 98.7824 303.448C97.8256 298.711 101.692 292.842 107.755 292.186C113.674 291.195 120.591 296.155 121.216 303.448C122.249 310.592 116.207 318.622 107.755 319.214C99.4494 320.27 90.3526 313.148 89.8096 303.448C88.7157 293.885 96.9028 283.708 107.755 283.177C118.476 282.048 129.688 291.336 130.188 303.448C131.329 315.396 121.023 327.773 107.755 328.224C94.6339 329.417 81.2723 317.966 80.8367 303.448C79.6188 289.088 92.096 274.553 107.755 274.167C123.266 272.915 138.802 286.523 139.161 303.448C140.443 320.214 125.813 336.911 107.755 337.234C89.848 338.567 72.1589 322.771 71.8638 303.448C70.5176 284.284 87.3014 265.403 107.755 265.158C128.06 263.763 147.903 281.714 148.134 303.448C149.544 325.036 130.602 346.045 107.755 346.243C85.0586 347.684 63.0446 327.607 62.891 303.448C61.4042 279.453 82.5164 256.281 107.755 256.148C132.846 254.643 157.017 276.883 157.107 303.448C158.658 329.846 135.392 355.192 107.755 355.252C80.2684 356.844 53.9434 332.399 53.9181 303.448C52.303 274.644 77.7218 247.13 107.755 247.139C137.635 245.492 166.131 272.073 166.08 303.448C167.772 334.659 140.178 364.33 107.755 364.262C75.4615 365.978 44.8466 337.216 44.9452 303.448C43.2062 269.834 72.9149 237.983 107.755 238.129C142.451 236.34 175.211 267.268 175.053 303.448C176.852 339.469 144.993 373.482 107.755 373.271C70.6722 375.129 35.7331 342.022 35.9723 303.448C34.0962 265.008 68.1256 228.85 107.755 229.12C147.237 227.202 184.329 262.455 184.026 303.448C185.966 344.286 149.783 382.628 107.755 382.281C65.8775 384.276 26.6319 346.839 26.9995 303.448C24.995 260.185 63.331 219.716 107.755 220.111C152.023 218.069 193.443 257.629 192.999 303.448C195.084 349.122 154.569 391.745 107.755 391.29C61.0882 393.397 17.522 351.674 18.0266 303.448C15.8772 255.376 58.546 210.565 107.755 211.101C156.821 208.922 202.54 252.819 201.972 303.448C204.181 353.927 159.363 400.896 107.755 400.3C56.3023 402.548 8.40857 356.479 9.05373 303.448C6.76293 250.562 53.7601 201.427 107.755 202.091C161.623 199.779 211.637 248.01 210.944 303.448C213.277 358.719 164.17 410.056 107.755 409.309C51.4867 411.694 -0.676062 361.289 0.0808436 303.448C-2.31646 245.757 48.9445 192.276 107.755 193.083C166.413 190.628 220.751 243.201 219.917 303.448C222.391 363.545 168.96 419.189 107.755 418.319" stroke="#FDFB74" stroke-width="12" stroke-linecap="round"/>
</g>
</svg>
