<svg width="440" height="300" viewBox="0 0 440 300" fill="none" xmlns="http://www.w3.org/2000/svg">
<g clip-path="url(#clip0_0_534)">
<rect width="440" height="300" rx="10" fill="#FFD875"/>
<path fill-rule="evenodd" clip-rule="evenodd" d="M363.454 0H340.544L440 67.8109V52.1897L363.454 0ZM440 14.4776L418.767 0H440V14.4776ZM440 105.523L285.231 0H262.322L440 121.144V105.523ZM440 158.856L207.009 0H184.1L440 174.477V158.856ZM440 212.189L128.787 0H105.877L440 227.811V212.189ZM440 265.523L50.5656 0H27.6547L440 281.144V265.523ZM412.343 300L0 18.8564V34.4776L389.433 300H412.343ZM334.12 300L0 72.1897V87.8107L311.211 300H334.12ZM255.898 300L0 125.523V141.144L232.989 300H255.898ZM177.676 300L0 178.856V194.477L154.767 300H177.676ZM99.4545 300L0 232.189V247.811L76.5436 300H99.4545ZM21.2322 300L0 285.523V300H21.2322Z" fill="#FDDC86"/>
</g>
<defs>
<clipPath id="clip0_0_534">
<rect width="440" height="300" rx="10" fill="white"/>
</clipPath>
</defs>
</svg>
