<svg width="1356" height="144" viewBox="0 0 1356 144" fill="none" xmlns="http://www.w3.org/2000/svg">
<path fill-rule="evenodd" clip-rule="evenodd" d="M116.441 41.1656C116.441 28.9131 123.784 18.9982 137.652 18.9982C156.415 18.9982 157.639 35.523 157.639 35.523H146.218C146.218 35.523 145.81 27.4621 137.652 27.4621C130.391 27.4621 127.863 33.5884 127.863 41.1656C127.863 48.7429 130.391 54.8691 137.652 54.8691C145.81 54.8691 146.218 46.8082 146.218 46.8082H157.639C157.639 46.8082 156.415 63.3331 137.652 63.3331C123.784 63.3331 116.441 53.4182 116.441 41.1656ZM172.317 41.1656C172.317 48.7429 175.254 54.8691 182.514 54.8691C189.775 54.8691 192.712 48.7429 192.712 41.1656C192.712 33.5884 189.775 27.4621 182.514 27.4621C175.254 27.4621 172.317 33.5884 172.317 41.1656ZM160.896 41.1656C160.896 28.9131 168.564 18.9982 182.514 18.9982C196.464 18.9982 204.133 28.9131 204.133 41.1656C204.133 53.4182 196.464 63.3331 182.514 63.3331C168.564 63.3331 160.896 53.4182 160.896 41.1656ZM240.053 62.1239V53.257H219.25V20.2073H207.829V62.1239H240.053ZM251.825 41.1656C251.825 48.7429 254.762 54.8691 262.022 54.8691C269.283 54.8691 272.22 48.7429 272.22 41.1656C272.22 33.5884 269.283 27.4621 262.022 27.4621C254.762 27.4621 251.825 33.5884 251.825 41.1656ZM240.404 41.1656C240.404 28.9131 248.072 18.9982 262.022 18.9982C275.972 18.9982 283.641 28.9131 283.641 41.1656C283.641 53.4182 275.972 63.3331 262.022 63.3331C248.072 63.3331 240.404 53.4182 240.404 41.1656ZM299.114 43.6889L298.799 123.789H287.785V118.146H287.378C287.378 118.146 283.707 124.998 274.325 124.998C262.088 124.998 255.97 114.519 255.97 102.831C255.97 91.1423 262.088 80.6631 274.325 80.6631C283.299 80.6631 286.97 86.3058 286.97 86.3058H287.378L287.785 20.0049H299.207L299.189 24.4969C299.726 23.6986 302.661 20.0132 311.026 20.0132C312.356 20.0132 316.941 20.134 320 20.8192V32.5075C320 32.5075 316.533 29.0817 309.395 30.0893C302.582 31.051 299.39 36.0514 299.114 43.6889ZM287.785 102.831C287.785 95.2534 284.522 89.1271 277.588 89.1271C270.654 89.1271 267.391 95.2534 267.391 102.831C267.391 110.408 270.654 116.534 277.588 116.534C284.522 116.534 287.785 110.408 287.785 102.831ZM200.856 81.8723V123.789H189.435V81.8723H200.856ZM188.619 73.8114C188.619 70.2646 191.556 67.3627 195.145 67.3627C198.735 67.3627 201.672 70.2646 201.672 73.8114C201.672 77.3582 198.735 80.2601 195.145 80.2601C191.556 80.2601 188.619 77.3582 188.619 73.8114ZM143.358 123.789V100.412C143.358 93.1575 141.89 89.9332 137.403 89.9332C132.508 89.9332 129.898 93.5606 129.898 102.025V123.789H118.477V81.8723H129.49V88.724H129.898C129.898 88.724 132.753 80.6631 141.319 80.6631C148.171 80.6631 151.842 83.8875 153.474 88.8047L153.556 88.724H153.964C153.964 88.724 157.635 80.6631 166.2 80.6631C176.806 80.6631 179.661 88.321 179.661 97.9941V123.789H168.24V100.412C168.24 93.1575 166.772 89.9332 162.285 89.9332C157.39 89.9332 154.779 93.5606 154.779 102.025V123.789H143.358ZM209.865 81.8723V123.789H221.286V102.025C221.286 93.5606 224.549 89.9332 230.667 89.9332C235.97 89.9332 238.009 93.1575 238.009 100.412V123.789H249.43V97.9941C249.43 88.321 246.167 80.6631 234.338 80.6631C224.957 80.6631 221.286 88.724 221.286 88.724H220.878V81.8723H209.865Z" fill="#222222"/>
<path d="M73.6031 64.4099C73.6031 77.8082 64.259 84.5073 53.8367 84.5073C43.4144 84.5073 34.0703 77.8082 34.0703 64.4099L34.0703 25.4458" stroke="#FF9E16" stroke-width="13.6545"/>
<path d="M88.2681 25.4666C83.957 25.4666 80.4297 28.9519 80.4297 33.2117C80.4297 37.4716 83.957 40.9569 88.2681 40.9569C92.5792 40.9569 96.1065 37.4716 96.1065 33.2117C96.1065 28.9519 92.5792 25.4666 88.2681 25.4666Z" fill="#3858FF"/>
<path d="M7.83841 25.4669C3.52728 25.4669 0 28.9522 0 33.2121C0 37.4719 3.52728 40.9573 7.83841 40.9573C12.1495 40.9573 15.6768 37.4719 15.6768 33.2121C15.6768 28.9522 12.1495 25.4669 7.83841 25.4669Z" fill="#3858FF"/>
<path fill-rule="evenodd" clip-rule="evenodd" d="M1143.18 46.3993C1141.76 34.2286 1147.91 23.5325 1161.69 21.9317C1180.32 19.7659 1183.45 36.039 1183.45 36.039L1172.1 37.3573C1172.1 37.3573 1170.77 29.3974 1162.66 30.3391C1155.45 31.1771 1153.65 37.5544 1154.52 45.081C1155.39 52.6076 1158.61 58.401 1165.83 57.5629C1173.93 56.6213 1173.4 48.5672 1173.4 48.5672L1184.75 47.2488C1184.75 47.2488 1185.44 63.8045 1166.8 65.9703C1153.03 67.5711 1144.59 58.57 1143.18 46.3993ZM1198.68 39.9497C1199.55 47.4763 1203.18 53.2226 1210.39 52.3845C1217.6 51.5465 1219.81 45.1221 1218.94 37.5955C1218.06 30.069 1214.44 24.3226 1207.22 25.1607C1200.01 25.9988 1197.8 32.4231 1198.68 39.9497ZM1187.33 41.268C1185.92 29.0973 1192.39 18.3636 1206.25 16.7533C1220.1 15.1431 1228.87 24.1066 1230.28 36.2772C1231.69 48.4479 1225.22 59.1817 1211.37 60.7919C1197.51 62.4021 1188.75 53.4387 1187.33 41.268ZM1268.38 52.9492L1267.36 44.1415L1246.69 46.5427L1242.88 13.714L1231.53 15.0323L1236.37 56.6688L1268.38 52.9492ZM1277.65 30.7722C1278.53 38.2988 1282.15 44.0452 1289.36 43.2071C1296.58 42.369 1298.79 35.9447 1297.91 28.4181C1297.04 20.8915 1293.41 15.1452 1286.2 15.9832C1278.99 16.8213 1276.78 23.2456 1277.65 30.7722ZM1266.31 32.0905C1264.89 19.9199 1271.37 9.1861 1285.22 7.57587C1299.08 5.96563 1307.84 14.9291 1309.26 27.0998C1310.67 39.2704 1304.2 50.0042 1290.34 51.6144C1276.49 53.2247 1267.72 44.2612 1266.31 32.0905ZM1324.91 27.7991L1333.85 107.421L1322.91 108.692L1322.26 103.087L1321.85 103.134C1321.85 103.134 1319 110.364 1309.68 111.447C1297.52 112.86 1290.24 103.157 1288.89 91.5465C1287.54 79.9364 1292.41 68.821 1304.56 67.4085C1313.48 66.3727 1317.77 71.5539 1317.77 71.5539L1318.18 71.5068L1310.93 5.60201L1322.28 4.28369L1322.78 8.74661C1323.22 7.88931 1325.71 3.89283 1334.02 2.92762C1335.34 2.77417 1339.91 2.36492 1343.02 2.6925L1344.37 14.3027C1344.37 14.3027 1340.53 11.2999 1333.56 13.1247C1326.91 14.8648 1324.31 20.192 1324.91 27.7991ZM1320.49 87.8741C1319.62 80.3475 1315.67 74.6388 1308.78 75.4392C1301.89 76.2396 1299.36 82.7016 1300.23 90.2282C1301.11 97.7548 1305.06 103.463 1311.94 102.663C1318.83 101.863 1321.37 95.4007 1320.49 87.8741ZM1231.72 77.09L1236.56 118.726L1225.22 120.045L1220.38 78.4083L1231.72 77.09ZM1218.64 70.4955C1218.23 66.9724 1220.81 63.7509 1224.38 63.3365C1227.94 62.9222 1231.19 65.4657 1231.6 68.9888C1232.01 72.5119 1229.43 75.7334 1225.86 76.1477C1222.3 76.5621 1219.05 74.0185 1218.64 70.4955ZM1179.45 125.363L1176.75 102.143C1175.91 94.9366 1174.08 91.9033 1169.63 92.4212C1164.76 92.9862 1162.59 96.8907 1163.57 105.298L1166.08 126.917L1154.73 128.235L1149.89 86.5989L1160.83 85.3276L1161.63 92.1336L1162.03 92.0865C1162.03 92.0865 1163.94 83.7499 1172.44 82.7612C1179.25 81.9702 1183.27 84.7493 1185.46 89.4452L1185.53 89.3557L1185.94 89.3086C1185.94 89.3086 1188.65 80.8779 1197.16 79.8891C1207.69 78.665 1211.41 85.9421 1212.53 95.5505L1215.51 121.173L1204.16 122.491L1201.47 99.2709C1200.63 92.0646 1198.8 89.0313 1194.34 89.5492C1189.48 90.1142 1187.3 94.0187 1188.28 102.426L1190.79 124.045L1179.45 125.363ZM1240.67 76.0501L1245.51 117.687L1256.85 116.368L1254.34 94.7493C1253.37 86.342 1256.19 82.3622 1262.27 81.6559C1267.53 81.0438 1269.93 84.0112 1270.77 91.2175L1273.47 114.438L1284.81 113.12L1281.83 87.4971C1280.72 77.8887 1276.59 70.6587 1264.84 72.0241C1255.52 73.107 1252.81 81.5378 1252.81 81.5378L1252.4 81.5848L1251.61 74.7789L1240.67 76.0501Z" fill="#222222"/>
<path d="M1107.07 106.783C1108.62 120.092 1100.11 127.825 1089.76 129.028C1079.4 130.231 1069.35 124.655 1067.8 111.346" stroke="#FF58CF" stroke-width="13.6545"/>
<path d="M1103.31 74.4332C1104.86 87.7419 1096.35 95.4748 1086 96.6779C1075.64 97.8809 1065.59 92.3051 1064.04 78.9964L1059.54 40.2928" stroke="#FF9E16" stroke-width="13.6545"/>
<path d="M1113.38 34.0574C1109.1 34.555 1106 38.4242 1106.49 42.6556C1106.98 46.8869 1110.89 49.9418 1115.17 49.4442C1119.45 48.9466 1122.55 45.0774 1122.06 40.846C1121.57 36.6146 1117.67 33.5598 1113.38 34.0574Z" fill="#3858FF"/>
<path d="M1033.49 43.3416C1029.21 43.8392 1026.11 47.7084 1026.6 51.9397C1027.09 56.1711 1031 59.226 1035.28 58.7284C1039.56 58.2307 1042.66 54.3616 1042.17 50.1302C1041.68 45.8988 1037.77 42.8439 1033.49 43.3416Z" fill="#3858FF"/>
<path fill-rule="evenodd" clip-rule="evenodd" d="M801.789 41.1656C801.789 28.9131 807.892 18.9982 819.42 18.9982C835.017 18.9982 836.035 35.523 836.035 35.523H826.541C826.541 35.523 826.202 27.4621 819.42 27.4621C813.385 27.4621 811.283 33.5884 811.283 41.1656C811.283 48.7429 813.385 54.8691 819.42 54.8691C826.202 54.8691 826.541 46.8082 826.541 46.8082H836.035C836.035 46.8082 835.017 63.3331 819.42 63.3331C807.892 63.3331 801.789 53.4182 801.789 41.1656ZM848.236 41.1656C848.236 48.7429 850.677 54.8691 856.712 54.8691C862.747 54.8691 865.189 48.7429 865.189 41.1656C865.189 33.5884 862.747 27.4621 856.712 27.4621C850.677 27.4621 848.236 33.5884 848.236 41.1656ZM838.742 41.1656C838.742 28.9131 845.116 18.9982 856.712 18.9982C868.308 18.9982 874.683 28.9131 874.683 41.1656C874.683 53.4182 868.308 63.3331 856.712 63.3331C845.116 63.3331 838.742 53.4182 838.742 41.1656ZM904.541 62.1239V53.257H887.249V20.2073H877.755V62.1239H904.541ZM914.327 41.1656C914.327 48.7429 916.768 54.8691 922.803 54.8691C928.838 54.8691 931.28 48.7429 931.28 41.1656C931.28 33.5884 928.838 27.4621 922.803 27.4621C916.768 27.4621 914.327 33.5884 914.327 41.1656ZM904.833 41.1656C904.833 28.9131 911.207 18.9982 922.803 18.9982C934.399 18.9982 940.773 28.9131 940.773 41.1656C940.773 53.4182 934.399 63.3331 922.803 63.3331C911.207 63.3331 904.833 53.4182 904.833 41.1656ZM953.635 43.6421L953.373 123.789H944.218V118.146H943.879C943.879 118.146 940.828 124.998 933.029 124.998C922.857 124.998 917.772 114.519 917.772 102.831C917.772 91.1424 922.857 80.6632 933.029 80.6632C940.489 80.6632 943.54 86.3059 943.54 86.3059H943.879L944.218 20.005H953.712L953.698 24.4945C954.148 23.6914 956.589 20.0131 963.536 20.0131C964.641 20.0131 968.453 20.1339 970.996 20.8191V32.5074C970.996 32.5074 968.113 29.0816 962.18 30.0892C956.528 31.0489 953.874 36.031 953.635 43.6421ZM944.218 102.831C944.218 95.2534 941.506 89.1272 935.742 89.1272C929.978 89.1272 927.265 95.2534 927.265 102.831C927.265 110.408 929.978 116.534 935.742 116.534C941.506 116.534 944.218 110.408 944.218 102.831ZM871.958 81.8724V123.789H862.464V81.8724H871.958ZM861.786 73.8115C861.786 70.2647 864.227 67.3628 867.211 67.3628C870.195 67.3628 872.636 70.2647 872.636 73.8115C872.636 77.3583 870.195 80.2602 867.211 80.2602C864.227 80.2602 861.786 77.3583 861.786 73.8115ZM824.163 123.789V100.412C824.163 93.1576 822.943 89.9333 819.213 89.9333C815.144 89.9333 812.974 93.5607 812.974 102.025V123.789H803.48V81.8724H812.635V88.7241H812.974C812.974 88.7241 815.348 80.6632 822.468 80.6632C828.164 80.6632 831.216 83.8876 832.572 88.8047L832.64 88.7241H832.979C832.979 88.7241 836.031 80.6632 843.151 80.6632C851.967 80.6632 854.34 88.3211 854.34 97.9941V123.789H844.846V100.412C844.846 93.1576 843.626 89.9333 839.896 89.9333C835.827 89.9333 833.657 93.5607 833.657 102.025V123.789H824.163ZM879.447 81.8724V123.789H888.94V102.025C888.94 93.5607 891.653 89.9333 896.739 89.9333C901.147 89.9333 902.842 93.1576 902.842 100.412V123.789H912.336V97.9941C912.336 88.3211 909.623 80.6632 899.791 80.6632C891.992 80.6632 888.94 88.7241 888.94 88.7241H888.601V81.8724H879.447Z" fill="#222222"/>
<path d="M766.182 96.9778C766.182 110.376 758.415 117.075 749.751 117.075C741.088 117.075 733.32 110.376 733.32 96.9778" stroke="#FF58CF" stroke-width="13.6545"/>
<path d="M766.182 64.4099C766.182 77.8082 758.415 84.5073 749.751 84.5073C741.088 84.5073 733.32 77.8082 733.32 64.4099L733.32 25.4458" stroke="#FF9E16" stroke-width="13.6545"/>
<path d="M778.371 25.4666C774.788 25.4666 771.855 28.9519 771.855 33.2117C771.855 37.4716 774.788 40.9569 778.371 40.9569C781.955 40.9569 784.887 37.4716 784.887 33.2117C784.887 28.9519 781.955 25.4666 778.371 25.4666Z" fill="#3858FF"/>
<path d="M711.516 25.4669C707.932 25.4669 705 28.9522 705 33.2121C705 37.4719 707.932 40.9573 711.516 40.9573C715.099 40.9573 718.031 37.4719 718.031 33.2121C718.031 28.9522 715.099 25.4669 711.516 25.4669Z" fill="#3858FF"/>
<path fill-rule="evenodd" clip-rule="evenodd" d="M442.441 41.1656C442.441 28.9131 449.784 18.9982 463.652 18.9982C482.415 18.9982 483.639 35.523 483.639 35.523H472.218C472.218 35.523 471.81 27.4621 463.652 27.4621C456.391 27.4621 453.863 33.5884 453.863 41.1656C453.863 48.7429 456.391 54.8691 463.652 54.8691C471.81 54.8691 472.218 46.8082 472.218 46.8082H483.639C483.639 46.8082 482.415 63.3331 463.652 63.3331C449.784 63.3331 442.441 53.4182 442.441 41.1656ZM498.317 41.1656C498.317 48.7429 501.254 54.8691 508.514 54.8691C515.775 54.8691 518.712 48.7429 518.712 41.1656C518.712 33.5884 515.775 27.4621 508.514 27.4621C501.254 27.4621 498.317 33.5884 498.317 41.1656ZM486.896 41.1656C486.896 28.9131 494.564 18.9982 508.514 18.9982C522.464 18.9982 530.133 28.9131 530.133 41.1656C530.133 53.4182 522.464 63.3331 508.514 63.3331C494.564 63.3331 486.896 53.4182 486.896 41.1656ZM566.053 62.1239V53.257H545.25V20.2073H533.829V62.1239H566.053ZM577.825 41.1656C577.825 48.7429 580.762 54.8691 588.022 54.8691C595.283 54.8691 598.22 48.7429 598.22 41.1656C598.22 33.5884 595.283 27.4621 588.022 27.4621C580.762 27.4621 577.825 33.5884 577.825 41.1656ZM566.404 41.1656C566.404 28.9131 574.072 18.9982 588.022 18.9982C601.972 18.9982 609.641 28.9131 609.641 41.1656C609.641 53.4182 601.972 63.3331 588.022 63.3331C574.072 63.3331 566.404 53.4182 566.404 41.1656ZM625.114 43.6889L624.799 123.789H613.785V118.146H613.378C613.378 118.146 609.707 124.998 600.325 124.998C588.088 124.998 581.97 114.519 581.97 102.831C581.97 91.1423 588.088 80.6631 600.325 80.6631C609.299 80.6631 612.97 86.3058 612.97 86.3058H613.378L613.785 20.0049H625.207L625.189 24.4969C625.726 23.6986 628.661 20.0132 637.026 20.0132C638.356 20.0132 642.941 20.134 646 20.8192V32.5075C646 32.5075 642.533 29.0817 635.395 30.0893C628.582 31.051 625.39 36.0514 625.114 43.6889ZM613.785 102.831C613.785 95.2534 610.522 89.1271 603.588 89.1271C596.654 89.1271 593.391 95.2534 593.391 102.831C593.391 110.408 596.654 116.534 603.588 116.534C610.522 116.534 613.785 110.408 613.785 102.831ZM526.856 81.8723V123.789H515.435V81.8723H526.856ZM514.619 73.8114C514.619 70.2646 517.556 67.3627 521.145 67.3627C524.735 67.3627 527.672 70.2646 527.672 73.8114C527.672 77.3582 524.735 80.2601 521.145 80.2601C517.556 80.2601 514.619 77.3582 514.619 73.8114ZM469.358 123.789V100.412C469.358 93.1575 467.89 89.9332 463.403 89.9332C458.508 89.9332 455.898 93.5606 455.898 102.025V123.789H444.477V81.8723H455.49V88.724H455.898C455.898 88.724 458.753 80.6631 467.319 80.6631C474.171 80.6631 477.842 83.8875 479.474 88.8047L479.556 88.724H479.964C479.964 88.724 483.635 80.6631 492.2 80.6631C502.806 80.6631 505.661 88.321 505.661 97.9941V123.789H494.24V100.412C494.24 93.1575 492.772 89.9332 488.285 89.9332C483.39 89.9332 480.779 93.5606 480.779 102.025V123.789H469.358ZM535.865 81.8723V123.789H547.286V102.025C547.286 93.5606 550.549 89.9332 556.667 89.9332C561.97 89.9332 564.009 93.1575 564.009 100.412V123.789H575.43V97.9941C575.43 88.321 572.167 80.6631 560.338 80.6631C550.957 80.6631 547.286 88.724 547.286 88.724H546.878V81.8723H535.865Z" fill="#222222"/>
<path d="M427.603 96.9778C427.603 110.376 418.259 117.075 407.837 117.075C397.414 117.075 388.07 110.376 388.07 96.9778" stroke="#FF58CF" stroke-width="13.6545"/>
<path d="M427.603 64.41C427.603 77.8083 418.259 84.5074 407.837 84.5074C397.414 84.5074 388.07 77.8083 388.07 64.41L388.07 25.446" stroke="#FF9E16" stroke-width="13.6545"/>
<path d="M442.268 25.4667C437.957 25.4667 434.43 28.952 434.43 33.2118C434.43 37.4717 437.957 40.957 442.268 40.957C446.579 40.957 450.106 37.4717 450.106 33.2118C450.106 28.952 446.579 25.4667 442.268 25.4667Z" fill="#3858FF"/>
<path d="M361.838 25.467C357.527 25.467 354 28.9524 354 33.2122C354 37.472 357.527 40.9574 361.838 40.9574C366.15 40.9574 369.677 37.472 369.677 33.2122C369.677 28.9524 366.15 25.467 361.838 25.467Z" fill="#3858FF"/>
</svg>
