<svg width="1245" height="586" viewBox="0 0 1245 586" fill="none" xmlns="http://www.w3.org/2000/svg">
<path fill-rule="evenodd" clip-rule="evenodd" d="M161.805 82.5881C161.805 70.0877 169.216 59.9722 183.216 59.9722C202.156 59.9722 203.392 76.8313 203.392 76.8313H191.863C191.863 76.8313 191.451 68.6074 183.216 68.6074C175.887 68.6074 173.334 74.8576 173.334 82.5881C173.334 90.3187 175.887 96.5689 183.216 96.5689C191.451 96.5689 191.863 88.3449 191.863 88.3449H203.392C203.392 88.3449 202.156 105.204 183.216 105.204C169.216 105.204 161.805 95.0886 161.805 82.5881ZM218.208 82.5881C218.208 90.3187 221.173 96.5689 228.502 96.5689C235.831 96.5689 238.796 90.3187 238.796 82.5881C238.796 74.8576 235.831 68.6074 228.502 68.6074C221.173 68.6074 218.208 74.8576 218.208 82.5881ZM206.679 82.5881C206.679 70.0877 214.42 59.9722 228.502 59.9722C242.584 59.9722 250.325 70.0877 250.325 82.5881C250.325 95.0886 242.584 105.204 228.502 105.204C214.42 105.204 206.679 95.0886 206.679 82.5881ZM286.585 103.97V94.9241H265.585V61.2058H254.056V103.97H286.585ZM298.468 82.5881C298.468 90.3187 301.432 96.5689 308.761 96.5689C316.091 96.5689 319.055 90.3187 319.055 82.5881C319.055 74.8576 316.091 68.6074 308.761 68.6074C301.432 68.6074 298.468 74.8576 298.468 82.5881ZM286.939 82.5881C286.939 70.0877 294.68 59.9722 308.761 59.9722C322.843 59.9722 330.584 70.0877 330.584 82.5881C330.584 95.0886 322.843 105.204 308.761 105.204C294.68 105.204 286.939 95.0886 286.939 82.5881ZM346.204 85.162L345.886 166.884H334.768V161.127H334.357C334.357 161.127 330.651 168.118 321.181 168.118C308.828 168.118 302.652 157.427 302.652 145.502C302.652 133.577 308.828 122.886 321.181 122.886C330.239 122.886 333.945 128.643 333.945 128.643H334.357L334.768 61.0003H346.298L346.28 65.5823C346.822 64.7678 349.784 61.0079 358.229 61.0079C359.571 61.0079 364.199 61.1311 367.287 61.8303V73.7551C367.287 73.7551 363.788 70.2599 356.582 71.2879C349.705 72.269 346.483 77.3704 346.204 85.162ZM334.768 145.502C334.768 137.771 331.474 131.521 324.475 131.521C317.475 131.521 314.181 137.771 314.181 145.502C314.181 153.232 317.475 159.483 324.475 159.483C331.474 159.483 334.768 153.232 334.768 145.502ZM247.017 124.119V166.884H235.488V124.119H247.017ZM234.665 115.895C234.665 112.277 237.629 109.316 241.253 109.316C244.876 109.316 247.841 112.277 247.841 115.895C247.841 119.514 244.876 122.475 241.253 122.475C237.629 122.475 234.665 119.514 234.665 115.895ZM188.976 166.884V143.035C188.976 135.633 187.494 132.343 182.965 132.343C178.024 132.343 175.388 136.044 175.388 144.679V166.884H163.859V124.119H174.977V131.11H175.388C175.388 131.11 178.271 122.886 186.917 122.886C193.835 122.886 197.541 126.175 199.188 131.192L199.27 131.11H199.682C199.682 131.11 203.388 122.886 212.034 122.886C222.74 122.886 225.622 130.699 225.622 140.567V166.884H214.093V143.035C214.093 135.633 212.611 132.343 208.082 132.343C203.14 132.343 200.505 136.044 200.505 144.679V166.884H188.976ZM256.111 124.119V166.884H267.64V144.679C267.64 136.044 270.934 132.343 277.11 132.343C282.463 132.343 284.522 135.633 284.522 143.035V166.884H296.051V140.567C296.051 130.699 292.757 122.886 280.816 122.886C271.346 122.886 267.64 131.11 267.64 131.11H267.228V124.119H256.111Z" fill="#222222"/>
<path d="M118.976 141.491C118.976 154.818 109.78 161.481 99.5233 161.481C89.2663 161.481 80.0703 154.818 80.0703 141.491" stroke="#FF9E16" stroke-width="13.4159"/>
<path d="M54.2454 66.3539C50.0026 66.3539 46.5312 69.8206 46.5312 74.0577C46.5312 78.2948 50.0026 81.7615 54.2454 81.7615C58.4882 81.7615 61.9595 78.2948 61.9595 74.0577C61.9595 69.8206 58.4882 66.3539 54.2454 66.3539Z" fill="#FF58CF"/>
<path d="M133.3 66.3539C129.057 66.3539 125.586 69.8206 125.586 74.0577C125.586 78.2948 129.057 81.7615 133.3 81.7615C137.543 81.7615 141.014 78.2948 141.014 74.0577C141.014 69.8206 137.543 66.3539 133.3 66.3539Z" fill="#FF58CF"/>
<path fill-rule="evenodd" clip-rule="evenodd" d="M161.805 261.46C161.805 248.959 169.216 238.844 183.216 238.844C202.156 238.844 203.392 255.703 203.392 255.703H191.863C191.863 255.703 191.451 247.479 183.216 247.479C175.887 247.479 173.334 253.729 173.334 261.46C173.334 269.19 175.887 275.441 183.216 275.441C191.451 275.441 191.863 267.217 191.863 267.217H203.392C203.392 267.217 202.156 284.076 183.216 284.076C169.216 284.076 161.805 273.96 161.805 261.46ZM218.208 261.46C218.208 269.19 221.173 275.441 228.502 275.441C235.831 275.441 238.796 269.19 238.796 261.46C238.796 253.729 235.831 247.479 228.502 247.479C221.173 247.479 218.208 253.729 218.208 261.46ZM206.679 261.46C206.679 248.959 214.42 238.844 228.502 238.844C242.584 238.844 250.325 248.959 250.325 261.46C250.325 273.96 242.584 284.076 228.502 284.076C214.42 284.076 206.679 273.96 206.679 261.46ZM286.585 282.842V273.796H265.585V240.077H254.056V282.842H286.585ZM298.468 261.46C298.468 269.19 301.432 275.441 308.761 275.441C316.091 275.441 319.055 269.19 319.055 261.46C319.055 253.729 316.091 247.479 308.761 247.479C301.432 247.479 298.468 253.729 298.468 261.46ZM286.939 261.46C286.939 248.959 294.68 238.844 308.761 238.844C322.843 238.844 330.584 248.959 330.584 261.46C330.584 273.96 322.843 284.076 308.761 284.076C294.68 284.076 286.939 273.96 286.939 261.46ZM346.204 264.034L345.886 345.756H334.768V339.999H334.357C334.357 339.999 330.651 346.989 321.181 346.989C308.828 346.989 302.652 336.298 302.652 324.373C302.652 312.449 308.828 301.757 321.181 301.757C330.239 301.757 333.945 307.514 333.945 307.514H334.357L334.768 239.872H346.298L346.28 244.454C346.822 243.64 349.784 239.88 358.229 239.88C359.571 239.88 364.199 240.003 367.287 240.702V252.627C367.287 252.627 363.788 249.132 356.582 250.16C349.705 251.141 346.483 256.242 346.204 264.034ZM334.768 324.373C334.768 316.643 331.474 310.393 324.475 310.393C317.475 310.393 314.181 316.643 314.181 324.373C314.181 332.104 317.475 338.354 324.475 338.354C331.474 338.354 334.768 332.104 334.768 324.373ZM247.017 302.991V345.756H235.488V302.991H247.017ZM234.665 294.767C234.665 291.148 237.629 288.188 241.253 288.188C244.876 288.188 247.841 291.148 247.841 294.767C247.841 298.386 244.876 301.346 241.253 301.346C237.629 301.346 234.665 298.386 234.665 294.767ZM188.976 345.756V321.906C188.976 314.505 187.494 311.215 182.965 311.215C178.024 311.215 175.388 314.916 175.388 323.551V345.756H163.859V302.991H174.977V309.981H175.388C175.388 309.981 178.271 301.757 186.917 301.757C193.835 301.757 197.541 305.047 199.188 310.064L199.27 309.981H199.682C199.682 309.981 203.388 301.757 212.034 301.757C222.74 301.757 225.622 309.57 225.622 319.439V345.756H214.093V321.906C214.093 314.505 212.611 311.215 208.082 311.215C203.14 311.215 200.505 314.916 200.505 323.551V345.756H188.976ZM256.111 302.991V345.756H267.64V323.551C267.64 314.916 270.934 311.215 277.11 311.215C282.463 311.215 284.522 314.505 284.522 321.906V345.756H296.051V319.439C296.051 309.57 292.757 301.757 280.816 301.757C271.346 301.757 267.64 309.981 267.64 309.981H267.228V302.991H256.111Z" fill="#222222"/>
<path fill-rule="evenodd" clip-rule="evenodd" d="M977.07 261.46C977.07 248.96 984.482 238.844 998.481 238.844C1017.42 238.844 1018.66 255.703 1018.66 255.703H1007.13C1007.13 255.703 1006.72 247.479 998.481 247.479C991.152 247.479 988.599 253.73 988.599 261.46C988.599 269.191 991.152 275.441 998.481 275.441C1006.72 275.441 1007.13 267.217 1007.13 267.217H1018.66C1018.66 267.217 1017.42 284.076 998.481 284.076C984.482 284.076 977.07 273.961 977.07 261.46ZM1033.47 261.46C1033.47 269.191 1036.44 275.441 1043.77 275.441C1051.1 275.441 1054.06 269.191 1054.06 261.46C1054.06 253.73 1051.1 247.479 1043.77 247.479C1036.44 247.479 1033.47 253.73 1033.47 261.46ZM1021.94 261.46C1021.94 248.96 1029.69 238.844 1043.77 238.844C1057.85 238.844 1065.59 248.96 1065.59 261.46C1065.59 273.961 1057.85 284.076 1043.77 284.076C1029.69 284.076 1021.94 273.961 1021.94 261.46ZM1101.85 282.842V273.796H1080.85V240.078H1069.32V282.842H1101.85ZM1113.73 261.46C1113.73 269.191 1116.7 275.441 1124.03 275.441C1131.36 275.441 1134.32 269.191 1134.32 261.46C1134.32 253.73 1131.36 247.479 1124.03 247.479C1116.7 247.479 1113.73 253.73 1113.73 261.46ZM1102.2 261.46C1102.2 248.96 1109.95 238.844 1124.03 238.844C1138.11 238.844 1145.85 248.96 1145.85 261.46C1145.85 273.961 1138.11 284.076 1124.03 284.076C1109.95 284.076 1102.2 273.961 1102.2 261.46ZM1161.47 264.034L1161.15 345.756H1150.03V339.999H1149.62C1149.62 339.999 1145.92 346.99 1136.45 346.99C1124.09 346.99 1117.92 336.298 1117.92 324.374C1117.92 312.449 1124.09 301.758 1136.45 301.758C1145.5 301.758 1149.21 307.514 1149.21 307.514H1149.62L1150.03 239.872H1161.56L1161.55 244.454C1162.09 243.64 1165.05 239.88 1173.49 239.88C1174.84 239.88 1179.46 240.003 1182.55 240.702V252.627C1182.55 252.627 1179.05 249.132 1171.85 250.16C1164.97 251.141 1161.75 256.243 1161.47 264.034ZM1150.03 324.374C1150.03 316.643 1146.74 310.393 1139.74 310.393C1132.74 310.393 1129.45 316.643 1129.45 324.374C1129.45 332.104 1132.74 338.354 1139.74 338.354C1146.74 338.354 1150.03 332.104 1150.03 324.374ZM1062.28 302.991V345.756H1050.75V302.991H1062.28ZM1049.93 294.767C1049.93 291.149 1052.89 288.188 1056.52 288.188C1060.14 288.188 1063.11 291.149 1063.11 294.767C1063.11 298.386 1060.14 301.346 1056.52 301.346C1052.89 301.346 1049.93 298.386 1049.93 294.767ZM1004.24 345.756V321.906C1004.24 314.505 1002.76 311.215 998.23 311.215C993.289 311.215 990.654 314.916 990.654 323.551V345.756H979.125V302.991H990.242V309.982H990.654C990.654 309.982 993.536 301.758 1002.18 301.758C1009.1 301.758 1012.81 305.047 1014.45 310.064L1014.54 309.982H1014.95C1014.95 309.982 1018.65 301.758 1027.3 301.758C1038.01 301.758 1040.89 309.57 1040.89 319.439V345.756H1029.36V321.906C1029.36 314.505 1027.88 311.215 1023.35 311.215C1018.41 311.215 1015.77 314.916 1015.77 323.551V345.756H1004.24ZM1071.38 302.991V345.756H1082.91V323.551C1082.91 314.916 1086.2 311.215 1092.38 311.215C1097.73 311.215 1099.79 314.505 1099.79 321.906V345.756H1111.32V319.439C1111.32 309.57 1108.02 301.758 1096.08 301.758C1086.61 301.758 1082.91 309.982 1082.91 309.982H1082.49V302.991H1071.38Z" fill="#222222"/>
<path d="M118.976 340.353C118.976 327.026 109.78 320.363 99.5233 320.363C89.2663 320.363 80.0703 327.026 80.0703 340.353" stroke="#3858FF" stroke-width="13.4159"/>
<path d="M54.2454 245.225C50.0026 245.225 46.5312 248.692 46.5312 252.929C46.5312 257.166 50.0026 260.633 54.2454 260.633C58.4882 260.633 61.9595 257.166 61.9595 252.929C61.9595 248.692 58.4882 245.225 54.2454 245.225Z" fill="#49C328"/>
<path d="M133.3 245.225C129.057 245.225 125.586 248.692 125.586 252.929C125.586 257.166 129.057 260.633 133.3 260.633C137.543 260.633 141.014 257.166 141.014 252.929C141.014 248.692 137.543 245.225 133.3 245.225Z" fill="#49C328"/>
<path fill-rule="evenodd" clip-rule="evenodd" d="M161.805 439.92C161.805 427.419 169.216 417.304 183.216 417.304C202.156 417.304 203.392 434.163 203.392 434.163H191.863C191.863 434.163 191.451 425.939 183.216 425.939C175.887 425.939 173.334 432.189 173.334 439.92C173.334 447.65 175.887 453.901 183.216 453.901C191.451 453.901 191.863 445.677 191.863 445.677H203.392C203.392 445.677 202.156 462.536 183.216 462.536C169.216 462.536 161.805 452.42 161.805 439.92ZM218.208 439.92C218.208 447.65 221.173 453.901 228.502 453.901C235.831 453.901 238.796 447.65 238.796 439.92C238.796 432.189 235.831 425.939 228.502 425.939C221.173 425.939 218.208 432.189 218.208 439.92ZM206.679 439.92C206.679 427.419 214.42 417.304 228.502 417.304C242.584 417.304 250.325 427.419 250.325 439.92C250.325 452.42 242.584 462.536 228.502 462.536C214.42 462.536 206.679 452.42 206.679 439.92ZM286.585 461.302V452.256H265.585V418.537H254.056V461.302H286.585ZM298.468 439.92C298.468 447.65 301.432 453.901 308.761 453.901C316.091 453.901 319.055 447.65 319.055 439.92C319.055 432.189 316.091 425.939 308.761 425.939C301.432 425.939 298.468 432.189 298.468 439.92ZM286.939 439.92C286.939 427.419 294.68 417.304 308.761 417.304C322.843 417.304 330.584 427.419 330.584 439.92C330.584 452.42 322.843 462.536 308.761 462.536C294.68 462.536 286.939 452.42 286.939 439.92ZM346.204 442.494L345.886 524.216H334.768V518.459H334.357C334.357 518.459 330.651 525.449 321.181 525.449C308.828 525.449 302.652 514.758 302.652 502.833C302.652 490.909 308.828 480.217 321.181 480.217C330.239 480.217 333.945 485.974 333.945 485.974H334.357L334.768 418.332H346.298L346.28 422.915C346.822 422.1 349.784 418.34 358.229 418.34C359.571 418.34 364.199 418.463 367.287 419.163V431.087C367.287 431.087 363.788 427.592 356.582 428.62C349.705 429.601 346.483 434.703 346.204 442.494ZM334.768 502.833C334.768 495.103 331.474 488.853 324.475 488.853C317.475 488.853 314.181 495.103 314.181 502.833C314.181 510.564 317.475 516.814 324.475 516.814C331.474 516.814 334.768 510.564 334.768 502.833ZM247.017 481.451V524.216H235.488V481.451H247.017ZM234.665 473.227C234.665 469.608 237.629 466.648 241.253 466.648C244.876 466.648 247.841 469.608 247.841 473.227C247.841 476.846 244.876 479.806 241.253 479.806C237.629 479.806 234.665 476.846 234.665 473.227ZM188.976 524.216V500.366C188.976 492.965 187.494 489.675 182.965 489.675C178.024 489.675 175.388 493.376 175.388 502.011V524.216H163.859V481.451H174.977V488.441H175.388C175.388 488.441 178.271 480.217 186.917 480.217C193.835 480.217 197.541 483.507 199.188 488.524L199.27 488.441H199.682C199.682 488.441 203.388 480.217 212.034 480.217C222.74 480.217 225.622 488.03 225.622 497.899V524.216H214.093V500.366C214.093 492.965 212.611 489.675 208.082 489.675C203.14 489.675 200.505 493.376 200.505 502.011V524.216H188.976ZM256.111 481.451V524.216H267.64V502.011C267.64 493.376 270.934 489.675 277.11 489.675C282.463 489.675 284.522 492.965 284.522 500.366V524.216H296.051V497.899C296.051 488.03 292.757 480.217 280.816 480.217C271.346 480.217 267.64 488.441 267.64 488.441H267.228V481.451H256.111Z" fill="#222222"/>
<path d="M118.976 518.813C118.976 505.487 109.78 498.823 99.5233 498.823C89.2663 498.823 80.0703 505.487 80.0703 518.813" stroke="#CF382C" stroke-width="13.4159"/>
<path d="M54.2454 423.686C50.0026 423.686 46.5312 427.153 46.5312 431.39C46.5312 435.627 50.0026 439.093 54.2454 439.093C58.4882 439.093 61.9595 435.627 61.9595 431.39C61.9595 427.153 58.4882 423.686 54.2454 423.686Z" fill="#FF9E16"/>
<path d="M133.3 423.686C129.057 423.686 125.586 427.153 125.586 431.39C125.586 435.627 129.057 439.093 133.3 439.093C137.543 439.093 141.014 435.627 141.014 431.39C141.014 427.153 137.543 423.686 133.3 423.686Z" fill="#FF9E16"/>
<path fill-rule="evenodd" clip-rule="evenodd" d="M977.062 82.5881C977.062 70.0877 984.474 59.9722 998.474 59.9722C1017.41 59.9722 1018.65 76.8313 1018.65 76.8313H1007.12C1007.12 76.8313 1006.71 68.6074 998.474 68.6074C991.144 68.6074 988.592 74.8576 988.592 82.5881C988.592 90.3187 991.144 96.5689 998.474 96.5689C1006.71 96.5689 1007.12 88.3449 1007.12 88.3449H1018.65C1018.65 88.3449 1017.41 105.204 998.474 105.204C984.474 105.204 977.062 95.0886 977.062 82.5881ZM1033.47 82.5881C1033.47 90.3187 1036.43 96.5689 1043.76 96.5689C1051.09 96.5689 1054.05 90.3187 1054.05 82.5881C1054.05 74.8576 1051.09 68.6074 1043.76 68.6074C1036.43 68.6074 1033.47 74.8576 1033.47 82.5881ZM1021.94 82.5881C1021.94 70.0877 1029.68 59.9722 1043.76 59.9722C1057.84 59.9722 1065.58 70.0877 1065.58 82.5881C1065.58 95.0886 1057.84 105.204 1043.76 105.204C1029.68 105.204 1021.94 95.0886 1021.94 82.5881ZM1101.84 103.97V94.9241H1080.84V61.2058H1069.31V103.97H1101.84ZM1113.73 82.5881C1113.73 90.3187 1116.69 96.5689 1124.02 96.5689C1131.35 96.5689 1134.31 90.3187 1134.31 82.5881C1134.31 74.8576 1131.35 68.6074 1124.02 68.6074C1116.69 68.6074 1113.73 74.8576 1113.73 82.5881ZM1102.2 82.5881C1102.2 70.0877 1109.94 59.9722 1124.02 59.9722C1138.1 59.9722 1145.84 70.0877 1145.84 82.5881C1145.84 95.0886 1138.1 105.204 1124.02 105.204C1109.94 105.204 1102.2 95.0886 1102.2 82.5881ZM1161.46 85.1626L1161.14 166.884H1150.03V161.127H1149.61C1149.61 161.127 1145.91 168.118 1136.44 168.118C1124.09 168.118 1117.91 157.427 1117.91 145.502C1117.91 133.577 1124.09 122.886 1136.44 122.886C1145.5 122.886 1149.2 128.643 1149.2 128.643H1149.61L1150.03 61.0003H1161.56L1161.54 65.5828C1162.08 64.7683 1165.04 61.0084 1173.49 61.0084C1174.83 61.0084 1179.46 61.1316 1182.55 61.8308V73.7555C1182.55 73.7555 1179.05 70.2604 1171.84 71.2884C1164.96 72.2695 1161.74 77.3709 1161.46 85.1626ZM1150.03 145.502C1150.03 137.771 1146.73 131.521 1139.73 131.521C1132.73 131.521 1129.44 137.771 1129.44 145.502C1129.44 153.232 1132.73 159.483 1139.73 159.483C1146.73 159.483 1150.03 153.232 1150.03 145.502ZM1062.27 124.119V166.884H1050.75V124.119H1062.27ZM1049.92 115.895C1049.92 112.277 1052.89 109.316 1056.51 109.316C1060.13 109.316 1063.1 112.277 1063.1 115.895C1063.1 119.514 1060.13 122.475 1056.51 122.475C1052.89 122.475 1049.92 119.514 1049.92 115.895ZM1004.23 166.884V143.035C1004.23 135.633 1002.75 132.343 998.222 132.343C993.281 132.343 990.646 136.044 990.646 144.679V166.884H979.117V124.119H990.234V131.11H990.646C990.646 131.11 993.528 122.886 1002.18 122.886C1009.09 122.886 1012.8 126.175 1014.45 131.192L1014.53 131.11H1014.94C1014.94 131.11 1018.65 122.886 1027.29 122.886C1038 122.886 1040.88 130.699 1040.88 140.567V166.884H1029.35V143.035C1029.35 135.633 1027.87 132.343 1023.34 132.343C1018.4 132.343 1015.76 136.044 1015.76 144.679V166.884H1004.23ZM1071.37 124.119V166.884H1082.9V144.679C1082.9 136.044 1086.19 132.343 1092.37 132.343C1097.72 132.343 1099.78 135.633 1099.78 143.035V166.884H1111.31V140.567C1111.31 130.699 1108.01 122.886 1096.07 122.886C1086.6 122.886 1082.9 131.11 1082.9 131.11H1082.49V124.119H1071.37Z" fill="#222222"/>
<path d="M933.625 139.529C933.625 153.199 924.193 160.033 913.672 160.033C903.151 160.033 893.719 153.199 893.719 139.529" stroke="#FF58CF" stroke-width="13.7608"/>
<path d="M933.625 106.303C933.625 119.973 924.193 126.807 913.672 126.807C903.151 126.807 893.719 119.973 893.719 106.303L893.719 66.5509" stroke="#FF9E16" stroke-width="13.7608"/>
<path d="M948.42 66.572C944.068 66.572 940.508 70.1278 940.508 74.4738C940.508 78.8199 944.068 82.3757 948.42 82.3757C952.772 82.3757 956.333 78.8199 956.333 74.4738C956.333 70.1278 952.772 66.572 948.42 66.572Z" fill="#3858FF"/>
<path d="M867.233 66.5719C862.881 66.5719 859.32 70.1277 859.32 74.4738C859.32 78.8198 862.881 82.3756 867.233 82.3756C871.585 82.3756 875.145 78.8198 875.145 74.4738C875.145 70.1277 871.585 66.5719 867.233 66.5719Z" fill="#3858FF"/>
<path d="M933.629 336.439C933.629 322.769 924.197 315.935 913.676 315.935C903.155 315.935 893.723 322.769 893.723 336.439" stroke="#FF58CF" stroke-width="13.7608"/>
<path d="M933.629 278.596C933.629 292.266 924.197 299.1 913.676 299.1C903.155 299.1 893.723 292.266 893.723 278.596L893.723 238.844" stroke="#CF382C" stroke-width="13.7608"/>
<path d="M948.424 238.865C944.072 238.865 940.512 242.421 940.512 246.767C940.512 251.113 944.072 254.669 948.424 254.669C952.776 254.669 956.337 251.113 956.337 246.767C956.337 242.421 952.776 238.865 948.424 238.865Z" fill="#3858FF"/>
<path d="M867.237 238.865C862.885 238.865 859.324 242.421 859.324 246.767C859.324 251.113 862.885 254.669 867.237 254.669C871.589 254.669 875.149 251.113 875.149 246.767C875.149 242.421 871.589 238.865 867.237 238.865Z" fill="#3858FF"/>
<path fill-rule="evenodd" clip-rule="evenodd" d="M977.07 439.92C977.07 427.42 984.482 417.304 998.481 417.304C1017.42 417.304 1018.66 434.163 1018.66 434.163H1007.13C1007.13 434.163 1006.72 425.94 998.481 425.94C991.152 425.94 988.599 432.19 988.599 439.92C988.599 447.651 991.152 453.901 998.481 453.901C1006.72 453.901 1007.13 445.677 1007.13 445.677H1018.66C1018.66 445.677 1017.42 462.536 998.481 462.536C984.482 462.536 977.07 452.421 977.07 439.92ZM1033.47 439.92C1033.47 447.651 1036.44 453.901 1043.77 453.901C1051.1 453.901 1054.06 447.651 1054.06 439.92C1054.06 432.19 1051.1 425.94 1043.77 425.94C1036.44 425.94 1033.47 432.19 1033.47 439.92ZM1021.94 439.92C1021.94 427.42 1029.69 417.304 1043.77 417.304C1057.85 417.304 1065.59 427.42 1065.59 439.92C1065.59 452.421 1057.85 462.536 1043.77 462.536C1029.69 462.536 1021.94 452.421 1021.94 439.92ZM1101.85 461.303V452.256H1080.85V418.538H1069.32V461.303H1101.85ZM1113.73 439.92C1113.73 447.651 1116.7 453.901 1124.03 453.901C1131.36 453.901 1134.32 447.651 1134.32 439.92C1134.32 432.19 1131.36 425.94 1124.03 425.94C1116.7 425.94 1113.73 432.19 1113.73 439.92ZM1102.2 439.92C1102.2 427.42 1109.95 417.304 1124.03 417.304C1138.11 417.304 1145.85 427.42 1145.85 439.92C1145.85 452.421 1138.11 462.536 1124.03 462.536C1109.95 462.536 1102.2 452.421 1102.2 439.92ZM1161.47 442.494L1161.15 524.216H1150.03V518.459H1149.62C1149.62 518.459 1145.92 525.45 1136.45 525.45C1124.09 525.45 1117.92 514.759 1117.92 502.834C1117.92 490.909 1124.09 480.218 1136.45 480.218C1145.5 480.218 1149.21 485.975 1149.21 485.975H1149.62L1150.03 418.332H1161.56L1161.55 422.915C1162.09 422.1 1165.05 418.34 1173.49 418.34C1174.84 418.34 1179.46 418.463 1182.55 419.163V431.087C1182.55 431.087 1179.05 427.592 1171.85 428.62C1164.97 429.601 1161.75 434.703 1161.47 442.494ZM1150.03 502.834C1150.03 495.103 1146.74 488.853 1139.74 488.853C1132.74 488.853 1129.45 495.103 1129.45 502.834C1129.45 510.564 1132.74 516.815 1139.74 516.815C1146.74 516.815 1150.03 510.564 1150.03 502.834ZM1062.28 481.451V524.216H1050.75V481.451H1062.28ZM1049.93 473.227C1049.93 469.609 1052.89 466.648 1056.52 466.648C1060.14 466.648 1063.11 469.609 1063.11 473.227C1063.11 476.846 1060.14 479.807 1056.52 479.807C1052.89 479.807 1049.93 476.846 1049.93 473.227ZM1004.24 524.216V500.367C1004.24 492.965 1002.76 489.675 998.23 489.675C993.289 489.675 990.654 493.376 990.654 502.011V524.216H979.125V481.451H990.242V488.442H990.654C990.654 488.442 993.536 480.218 1002.18 480.218C1009.1 480.218 1012.81 483.507 1014.45 488.524L1014.54 488.442H1014.95C1014.95 488.442 1018.65 480.218 1027.3 480.218C1038.01 480.218 1040.89 488.031 1040.89 497.899V524.216H1029.36V500.367C1029.36 492.965 1027.88 489.675 1023.35 489.675C1018.41 489.675 1015.77 493.376 1015.77 502.011V524.216H1004.24ZM1071.38 481.451V524.216H1082.91V502.011C1082.91 493.376 1086.2 489.675 1092.38 489.675C1097.73 489.675 1099.79 492.965 1099.79 500.367V524.216H1111.32V497.899C1111.32 488.031 1108.02 480.218 1096.08 480.218C1086.61 480.218 1082.91 488.442 1082.91 488.442H1082.49V481.451H1071.38Z" fill="#222222"/>
<path d="M933.633 490.282C933.633 503.952 924.201 510.786 913.68 510.786C903.159 510.786 893.727 503.952 893.727 490.282" stroke="#FF58CF" stroke-width="13.7608"/>
<path d="M933.633 457.057C933.633 470.726 924.201 477.561 913.68 477.561C903.159 477.561 893.727 470.726 893.727 457.057L893.727 417.304" stroke="#49C328" stroke-width="13.7608"/>
<circle cx="948.5" cy="424.5" r="7.5" fill="#3858FF"/>
<path d="M874 424.5C874 425.485 873.806 426.46 873.429 427.37C873.052 428.28 872.5 429.107 871.803 429.803C871.107 430.5 870.28 431.052 869.37 431.429C868.46 431.806 867.485 432 866.5 432C865.515 432 864.54 431.806 863.63 431.429C862.72 431.052 861.893 430.5 861.197 429.803C860.5 429.107 859.948 428.28 859.571 427.37C859.194 426.46 859 425.485 859 424.5L866.5 424.5H874Z" fill="#3858FF"/>
<path fill-rule="evenodd" clip-rule="evenodd" d="M588.371 82.5881C588.371 70.0877 595.783 59.9722 609.782 59.9722C628.723 59.9722 629.958 76.8313 629.958 76.8313H618.429C618.429 76.8313 618.017 68.6074 609.782 68.6074C602.453 68.6074 599.9 74.8576 599.9 82.5881C599.9 90.3187 602.453 96.5689 609.782 96.5689C618.017 96.5689 618.429 88.3449 618.429 88.3449H629.958C629.958 88.3449 628.723 105.204 609.782 105.204C595.783 105.204 588.371 95.0886 588.371 82.5881ZM644.775 82.5881C644.775 90.3187 647.739 96.5689 655.068 96.5689C662.398 96.5689 665.362 90.3187 665.362 82.5881C665.362 74.8576 662.398 68.6074 655.068 68.6074C647.739 68.6074 644.775 74.8576 644.775 82.5881ZM633.246 82.5881C633.246 70.0877 640.987 59.9722 655.068 59.9722C669.15 59.9722 676.891 70.0877 676.891 82.5881C676.891 95.0886 669.15 105.204 655.068 105.204C640.987 105.204 633.246 95.0886 633.246 82.5881ZM713.151 103.97V94.9241H692.152V61.2058H680.623V103.97H713.151ZM725.034 82.5881C725.034 90.3187 727.999 96.5689 735.328 96.5689C742.657 96.5689 745.622 90.3187 745.622 82.5881C745.622 74.8576 742.657 68.6074 735.328 68.6074C727.999 68.6074 725.034 74.8576 725.034 82.5881ZM713.505 82.5881C713.505 70.0877 721.246 59.9722 735.328 59.9722C749.41 59.9722 757.151 70.0877 757.151 82.5881C757.151 95.0886 749.41 105.204 735.328 105.204C721.246 105.204 713.505 95.0886 713.505 82.5881ZM772.77 85.1626L772.452 166.884H761.335V161.127H760.923C760.923 161.127 757.217 168.118 747.747 168.118C735.395 168.118 729.218 157.427 729.218 145.502C729.218 133.577 735.395 122.886 747.747 122.886C756.806 122.886 760.511 128.643 760.511 128.643H760.923L761.335 61.0003H772.864L772.846 65.5828C773.389 64.7683 776.351 61.0084 784.795 61.0084C786.137 61.0084 790.766 61.1316 793.854 61.8308V73.7555C793.854 73.7555 790.354 70.2604 783.148 71.2884C776.271 72.2695 773.049 77.3709 772.77 85.1626ZM761.335 145.502C761.335 137.771 758.041 131.521 751.041 131.521C744.041 131.521 740.747 137.771 740.747 145.502C740.747 153.232 744.041 159.483 751.041 159.483C758.041 159.483 761.335 153.232 761.335 145.502ZM673.584 124.119V166.884H662.054V124.119H673.584ZM661.231 115.895C661.231 112.277 664.196 109.316 667.819 109.316C671.442 109.316 674.407 112.277 674.407 115.895C674.407 119.514 671.442 122.475 667.819 122.475C664.196 122.475 661.231 119.514 661.231 115.895ZM615.543 166.884V143.035C615.543 135.633 614.06 132.343 609.531 132.343C604.59 132.343 601.955 136.044 601.955 144.679V166.884H590.426V124.119H601.543V131.11H601.955C601.955 131.11 604.837 122.886 613.484 122.886C620.401 122.886 624.107 126.175 625.754 131.192L625.836 131.11H626.248C626.248 131.11 629.954 122.886 638.601 122.886C649.306 122.886 652.189 130.699 652.189 140.567V166.884H640.659V143.035C640.659 135.633 639.177 132.343 634.648 132.343C629.707 132.343 627.072 136.044 627.072 144.679V166.884H615.543ZM682.677 124.119V166.884H694.206V144.679C694.206 136.044 697.501 132.343 703.677 132.343C709.03 132.343 711.088 135.633 711.088 143.035V166.884H722.617V140.567C722.617 130.699 719.323 122.886 707.383 122.886C697.912 122.886 694.206 131.11 694.206 131.11H693.795V124.119H682.677Z" fill="#222222"/>
<path fill-rule="evenodd" clip-rule="evenodd" d="M588.371 261.46C588.371 248.959 595.783 238.844 609.782 238.844C628.723 238.844 629.958 255.703 629.958 255.703H618.429C618.429 255.703 618.017 247.479 609.782 247.479C602.453 247.479 599.9 253.729 599.9 261.46C599.9 269.19 602.453 275.441 609.782 275.441C618.017 275.441 618.429 267.217 618.429 267.217H629.958C629.958 267.217 628.723 284.076 609.782 284.076C595.783 284.076 588.371 273.96 588.371 261.46ZM644.775 261.46C644.775 269.19 647.739 275.441 655.068 275.441C662.398 275.441 665.362 269.19 665.362 261.46C665.362 253.729 662.398 247.479 655.068 247.479C647.739 247.479 644.775 253.729 644.775 261.46ZM633.246 261.46C633.246 248.959 640.987 238.844 655.068 238.844C669.15 238.844 676.891 248.959 676.891 261.46C676.891 273.96 669.15 284.076 655.068 284.076C640.987 284.076 633.246 273.96 633.246 261.46ZM713.151 282.842V273.796H692.152V240.077H680.623V282.842H713.151ZM725.034 261.46C725.034 269.19 727.999 275.441 735.328 275.441C742.657 275.441 745.622 269.19 745.622 261.46C745.622 253.729 742.657 247.479 735.328 247.479C727.999 247.479 725.034 253.729 725.034 261.46ZM713.505 261.46C713.505 248.959 721.246 238.844 735.328 238.844C749.41 238.844 757.151 248.959 757.151 261.46C757.151 273.96 749.41 284.076 735.328 284.076C721.246 284.076 713.505 273.96 713.505 261.46ZM772.77 264.034L772.452 345.756H761.335V339.999H760.923C760.923 339.999 757.217 346.99 747.747 346.99C735.395 346.99 729.218 336.298 729.218 324.374C729.218 312.449 735.395 301.758 747.747 301.758C756.806 301.758 760.511 307.514 760.511 307.514H760.923L761.335 239.872H772.864L772.846 244.454C773.389 243.64 776.351 239.88 784.795 239.88C786.137 239.88 790.766 240.003 793.854 240.702V252.627C793.854 252.627 790.354 249.132 783.148 250.16C776.271 251.141 773.049 256.243 772.77 264.034ZM761.335 324.374C761.335 316.643 758.041 310.393 751.041 310.393C744.041 310.393 740.747 316.643 740.747 324.374C740.747 332.104 744.041 338.354 751.041 338.354C758.041 338.354 761.335 332.104 761.335 324.374ZM673.584 302.991V345.756H662.054V302.991H673.584ZM661.231 294.767C661.231 291.149 664.196 288.188 667.819 288.188C671.442 288.188 674.407 291.149 674.407 294.767C674.407 298.386 671.442 301.346 667.819 301.346C664.196 301.346 661.231 298.386 661.231 294.767ZM615.543 345.756V321.906C615.543 314.505 614.06 311.215 609.531 311.215C604.59 311.215 601.955 314.916 601.955 323.551V345.756H590.426V302.991H601.543V309.982H601.955C601.955 309.982 604.837 301.758 613.484 301.758C620.401 301.758 624.107 305.047 625.754 310.064L625.836 309.982H626.248C626.248 309.982 629.954 301.758 638.601 301.758C649.306 301.758 652.189 309.57 652.189 319.439V345.756H640.659V321.906C640.659 314.505 639.177 311.215 634.648 311.215C629.707 311.215 627.072 314.916 627.072 323.551V345.756H615.543ZM682.677 302.991V345.756H694.206V323.551C694.206 314.916 697.501 311.215 703.677 311.215C709.03 311.215 711.088 314.505 711.088 321.906V345.756H722.617V319.439C722.617 309.57 719.323 301.758 707.383 301.758C697.912 301.758 694.206 309.982 694.206 309.982H693.795V302.991H682.677Z" fill="#222222"/>
<path d="M544.942 139.53C544.942 153.199 535.509 160.034 524.988 160.034C514.468 160.034 505.035 153.199 505.035 139.53" stroke="#FF58CF" stroke-width="13.7608"/>
<path d="M544.942 106.303C544.942 119.973 535.509 126.807 524.988 126.807C514.468 126.807 505.035 119.973 505.035 106.303L505.035 66.551" stroke="#FF9E16" stroke-width="13.7608"/>
<path d="M486.297 74.364C486.297 69.7037 483.081 67.3736 479.494 67.3736C475.907 67.3736 472.691 69.7037 472.691 74.364" stroke="#3858FF" stroke-width="7.41153"/>
<path d="M566.179 74.364C566.179 69.7037 562.964 67.3736 559.377 67.3736C555.79 67.3736 552.574 69.7037 552.574 74.364" stroke="#3858FF" stroke-width="7.41153"/>
<path d="M544.942 497.684C544.942 511.354 535.509 518.188 524.988 518.188C514.468 518.188 505.035 511.354 505.035 497.684" stroke="#FFD402" stroke-width="13.7608"/>
<path d="M544.942 464.458C544.942 478.127 535.509 484.962 524.988 484.962C514.468 484.962 505.035 478.127 505.035 464.458L505.035 424.706" stroke="#FF58CF" stroke-width="13.7608"/>
<path d="M486.297 432.518C486.297 427.858 483.081 425.528 479.494 425.528C475.907 425.528 472.691 427.858 472.691 432.518" stroke="#3858FF" stroke-width="7.41153"/>
<path d="M566.179 432.518C566.179 427.858 562.964 425.528 559.377 425.528C555.79 425.528 552.574 427.858 552.574 432.518" stroke="#3858FF" stroke-width="7.41153"/>
<path d="M486.297 238.843C486.297 243.504 483.081 245.834 479.494 245.834C475.907 245.834 472.691 243.504 472.691 238.843" stroke="#3858FF" stroke-width="7.41153"/>
<path d="M566.179 238.843C566.179 243.504 562.964 245.834 559.377 245.834C555.79 245.834 552.574 243.504 552.574 238.843" stroke="#3858FF" stroke-width="7.41153"/>
<path d="M544.942 336.438C544.942 322.769 535.509 315.934 524.988 315.934C514.468 315.934 505.035 322.769 505.035 336.438" stroke="#FF58CF" stroke-width="13.7608"/>
<path d="M544.942 278.596C544.942 292.265 535.509 299.1 524.988 299.1C514.468 299.1 505.035 292.265 505.035 278.596L505.035 238.844" stroke="#CF382C" stroke-width="13.7608"/>
<path fill-rule="evenodd" clip-rule="evenodd" d="M588.371 439.92C588.371 427.42 595.783 417.304 609.782 417.304C628.723 417.304 629.958 434.163 629.958 434.163H618.429C618.429 434.163 618.017 425.94 609.782 425.94C602.453 425.94 599.9 432.19 599.9 439.92C599.9 447.651 602.453 453.901 609.782 453.901C618.017 453.901 618.429 445.677 618.429 445.677H629.958C629.958 445.677 628.723 462.536 609.782 462.536C595.783 462.536 588.371 452.421 588.371 439.92ZM644.775 439.92C644.775 447.651 647.739 453.901 655.068 453.901C662.398 453.901 665.362 447.651 665.362 439.92C665.362 432.19 662.398 425.94 655.068 425.94C647.739 425.94 644.775 432.19 644.775 439.92ZM633.246 439.92C633.246 427.42 640.987 417.304 655.068 417.304C669.15 417.304 676.891 427.42 676.891 439.92C676.891 452.421 669.15 462.536 655.068 462.536C640.987 462.536 633.246 452.421 633.246 439.92ZM713.151 461.303V452.256H692.152V418.538H680.623V461.303H713.151ZM725.034 439.92C725.034 447.651 727.999 453.901 735.328 453.901C742.657 453.901 745.622 447.651 745.622 439.92C745.622 432.19 742.657 425.94 735.328 425.94C727.999 425.94 725.034 432.19 725.034 439.92ZM713.505 439.92C713.505 427.42 721.246 417.304 735.328 417.304C749.41 417.304 757.151 427.42 757.151 439.92C757.151 452.421 749.41 462.536 735.328 462.536C721.246 462.536 713.505 452.421 713.505 439.92ZM772.77 442.494L772.452 524.216H761.335V518.459H760.923C760.923 518.459 757.217 525.45 747.747 525.45C735.395 525.45 729.218 514.759 729.218 502.834C729.218 490.909 735.395 480.218 747.747 480.218C756.806 480.218 760.511 485.975 760.511 485.975H760.923L761.335 418.332H772.864L772.846 422.915C773.389 422.1 776.351 418.34 784.795 418.34C786.137 418.34 790.766 418.463 793.854 419.163V431.087C793.854 431.087 790.354 427.592 783.148 428.62C776.271 429.601 773.049 434.703 772.77 442.494ZM761.335 502.834C761.335 495.103 758.041 488.853 751.041 488.853C744.041 488.853 740.747 495.103 740.747 502.834C740.747 510.564 744.041 516.815 751.041 516.815C758.041 516.815 761.335 510.564 761.335 502.834ZM673.584 481.451V524.216H662.054V481.451H673.584ZM661.231 473.227C661.231 469.609 664.196 466.648 667.819 466.648C671.442 466.648 674.407 469.609 674.407 473.227C674.407 476.846 671.442 479.807 667.819 479.807C664.196 479.807 661.231 476.846 661.231 473.227ZM615.543 524.216V500.367C615.543 492.965 614.06 489.675 609.531 489.675C604.59 489.675 601.955 493.376 601.955 502.011V524.216H590.426V481.451H601.543V488.442H601.955C601.955 488.442 604.837 480.218 613.484 480.218C620.401 480.218 624.107 483.507 625.754 488.524L625.836 488.442H626.248C626.248 488.442 629.954 480.218 638.601 480.218C649.306 480.218 652.189 488.031 652.189 497.899V524.216H640.659V500.367C640.659 492.965 639.177 489.675 634.648 489.675C629.707 489.675 627.072 493.376 627.072 502.011V524.216H615.543ZM682.677 481.451V524.216H694.206V502.011C694.206 493.376 697.501 489.675 703.677 489.675C709.03 489.675 711.088 492.965 711.088 500.367V524.216H722.617V497.899C722.617 488.031 719.323 480.218 707.383 480.218C697.912 480.218 694.206 488.442 694.206 488.442H693.795V481.451H682.677Z" fill="#222222"/>
<path d="M72.7578 485.563L72.7581 423.678L86.5605 423.678L86.5318 471.993H104.147C110.05 471.993 112.018 473.034 112.018 466.648V464.612H125.792V470.507C125.792 481.806 121.856 485.563 107.59 485.563H86.5318H72.7578Z" fill="#3858FF"/>
<path d="M72.7578 307.308L72.7581 245.423L86.5605 245.423L86.5318 293.738H104.147C110.05 293.738 112.018 294.779 112.018 288.393V286.357H125.792V292.252C125.792 303.551 121.856 307.308 107.59 307.308H86.5318H72.7578Z" fill="#FF58CF"/>
<path d="M72.7578 128.436L72.7581 66.551L86.5605 66.551L86.5318 114.866H104.147C110.05 114.866 112.018 115.907 112.018 109.521V107.485H125.792V113.38C125.792 124.679 121.856 128.436 107.59 128.436H86.5318H72.7578Z" fill="#3858FF"/>
<rect x="0.5" y="0.5" width="1244" height="585" rx="9.47596" stroke="#909090"/>
</svg>
