<svg width="441" height="148" viewBox="0 0 441 148" fill="none" xmlns="http://www.w3.org/2000/svg">
<path fill-rule="evenodd" clip-rule="evenodd" d="M160.641 30.8974C160.641 13.819 170.753 -0.000976562 189.854 -0.000976562C215.696 -0.000976562 217.381 23.0324 217.381 23.0324H201.651C201.651 23.0324 201.089 11.7966 189.854 11.7966C179.854 11.7966 176.371 20.3358 176.371 30.8974C176.371 41.4591 179.854 49.9983 189.854 49.9983C201.089 49.9983 201.651 38.7625 201.651 38.7625H217.381C217.381 38.7625 215.696 61.7958 189.854 61.7958C170.753 61.7958 160.641 47.9758 160.641 30.8974ZM237.597 30.8974C237.597 41.4591 241.642 49.9983 251.642 49.9983C261.642 49.9983 265.687 41.4591 265.687 30.8974C265.687 20.3358 261.642 11.7966 251.642 11.7966C241.642 11.7966 237.597 20.3358 237.597 30.8974ZM221.867 30.8974C221.867 13.819 232.429 -0.000976562 251.642 -0.000976562C270.855 -0.000976562 281.417 13.819 281.417 30.8974C281.417 47.9758 270.855 61.7958 251.642 61.7958C232.429 61.7958 221.867 47.9758 221.867 30.8974ZM330.889 60.1105V47.7511H302.238V1.68439H286.508V60.1105H330.889ZM347.102 30.8974C347.102 41.4591 351.147 49.9983 361.147 49.9983C371.147 49.9983 375.192 41.4591 375.192 30.8974C375.192 20.3358 371.147 11.7966 361.147 11.7966C351.147 11.7966 347.102 20.3358 347.102 30.8974ZM331.372 30.8974C331.372 13.819 341.934 -0.000976562 361.147 -0.000976562C380.36 -0.000976562 390.922 13.819 390.922 30.8974C390.922 47.9758 380.36 61.7958 361.147 61.7958C341.934 61.7958 331.372 47.9758 331.372 30.8974ZM412.234 34.3101L411.8 146.063H396.632V138.198H396.07C396.07 138.198 391.014 147.748 378.093 147.748C361.239 147.748 352.812 133.142 352.812 116.85C352.812 100.558 361.239 85.9516 378.093 85.9516C390.452 85.9516 395.508 93.8167 395.508 93.8167H396.07L396.632 1.40234H412.362L412.338 7.65802C413.087 6.53458 417.134 1.41357 428.638 1.41357C430.469 1.41357 436.784 1.58196 440.997 2.53715V18.829C440.997 18.829 436.222 14.0538 426.391 15.4583C417.038 16.7944 412.64 23.7233 412.234 34.3101ZM396.632 116.85C396.632 106.288 392.138 97.7492 382.587 97.7492C373.037 97.7492 368.542 106.288 368.542 116.85C368.542 127.412 373.037 135.951 382.587 135.951C392.138 135.951 396.632 127.412 396.632 116.85ZM276.905 87.637V146.063H261.175V87.637H276.905ZM260.051 76.4012C260.051 71.4575 264.096 67.4126 269.04 67.4126C273.984 67.4126 278.028 71.4575 278.028 76.4012C278.028 81.345 273.984 85.3898 269.04 85.3898C264.096 85.3898 260.051 81.345 260.051 76.4012ZM197.714 146.063V113.479C197.714 103.367 195.692 98.8728 189.512 98.8728C182.771 98.8728 179.175 103.929 179.175 115.726V146.063H163.445V87.637H178.614V97.1874H179.175C179.175 97.1874 183.108 85.9516 194.906 85.9516C204.344 85.9516 209.4 90.446 211.647 97.2998L211.759 97.1874H212.321C212.321 97.1874 217.377 85.9516 229.175 85.9516C243.781 85.9516 247.714 96.6256 247.714 110.109V146.063H231.984V113.479C231.984 103.367 229.961 98.8728 223.782 98.8728C217.04 98.8728 213.445 103.929 213.445 115.726V146.063H197.714ZM289.313 87.637V146.063H305.043V115.726C305.043 103.929 309.537 98.8728 317.964 98.8728C325.267 98.8728 328.076 103.367 328.076 113.479V146.063H343.806V110.109C343.806 96.6256 339.312 85.9516 323.02 85.9516C310.099 85.9516 305.043 97.1874 305.043 97.1874H304.481V87.637H289.313Z" fill="#222222"/>
<path d="M101.374 108.692C101.374 127.367 88.5042 136.705 74.1498 136.705C59.7953 136.705 46.9258 127.367 46.9258 108.692" stroke="#FF58CF" stroke-width="18.7752"/>
<path d="M101.374 63.297C101.374 81.9724 88.5042 91.3101 74.1498 91.3101C59.7953 91.3101 46.9258 81.9724 46.9258 63.297L46.9258 8.9864" stroke="#FF9E16" stroke-width="18.7752"/>
<path d="M121.573 9.0152C115.635 9.0152 110.777 13.8733 110.777 19.8109C110.777 25.7485 115.635 30.6066 121.573 30.6066C127.511 30.6066 132.369 25.7485 132.369 19.8109C132.369 13.8733 127.511 9.0152 121.573 9.0152Z" fill="#3858FF"/>
<path d="M10.7957 9.01544C4.85807 9.01544 0 13.8735 0 19.8111C0 25.7488 4.85807 30.6069 10.7957 30.6069C16.7334 30.6069 21.5914 25.7488 21.5914 19.8111C21.5914 13.8735 16.7334 9.01544 10.7957 9.01544Z" fill="#3858FF"/>
</svg>
