<svg width="441" height="200" viewBox="0 0 441 200" fill="none" xmlns="http://www.w3.org/2000/svg">
<path d="M28.6998 22.0491C29.8153 21.9251 30.6121 21.7481 31.0547 21.4825C31.4797 21.2346 31.8161 20.6326 32.0463 19.6764H33.268V32H31.6036V23.2354H28.6998V22.0491ZM37.0158 32L40.256 27.2547L37.1751 22.7396H39.176L41.3715 25.9622L43.4609 22.7396H45.3731L42.2391 27.2547L45.5148 32H43.514L41.1591 28.5473L38.9812 32H37.0158Z" fill="#909090"/>
<path d="M167.269 184.606C167.818 185.616 168.101 187.014 168.101 188.785C168.101 190.485 167.853 191.866 167.34 192.964C166.614 194.557 165.427 195.336 163.781 195.336C162.293 195.336 161.196 194.681 160.47 193.406C159.85 192.326 159.549 190.874 159.549 189.068C159.549 187.652 159.744 186.448 160.098 185.439C160.788 183.562 162.01 182.623 163.798 182.623C165.392 182.623 166.543 183.278 167.269 184.606ZM165.693 192.84C166.171 192.132 166.419 190.804 166.419 188.856C166.419 187.439 166.242 186.289 165.905 185.386C165.551 184.465 164.878 184.022 163.887 184.022C162.966 184.022 162.311 184.447 161.886 185.315C161.461 186.165 161.231 187.439 161.231 189.122C161.231 190.379 161.373 191.388 161.638 192.167C162.063 193.336 162.771 193.92 163.781 193.92C164.577 193.92 165.233 193.566 165.693 192.84ZM170.308 196.806C170.698 196.735 170.981 196.47 171.141 195.974C171.229 195.708 171.282 195.46 171.282 195.212V195.106C171.264 195.071 171.264 195.035 171.247 195H170.308V193.123H172.15V194.858C172.15 195.549 172.026 196.151 171.743 196.664C171.459 197.196 170.999 197.514 170.308 197.621V196.806ZM175.962 191.848C176.051 192.734 176.476 193.353 177.184 193.69C177.556 193.867 177.981 193.938 178.477 193.938C179.397 193.938 180.07 193.654 180.513 193.07C180.955 192.468 181.186 191.831 181.186 191.105C181.186 190.237 180.92 189.582 180.407 189.104C179.875 188.626 179.238 188.396 178.494 188.396C177.963 188.396 177.503 188.502 177.113 188.714C176.724 188.909 176.405 189.192 176.139 189.564L174.794 189.493L175.732 182.836H182.159V184.323H176.901L176.37 187.776C176.653 187.563 176.936 187.386 177.184 187.28C177.644 187.085 178.193 186.997 178.795 186.997C179.929 186.997 180.885 187.351 181.681 188.095C182.461 188.821 182.868 189.759 182.868 190.874C182.868 192.043 182.496 193.088 181.788 193.973C181.062 194.858 179.893 195.319 178.317 195.319C177.308 195.319 176.405 195.018 175.644 194.451C174.865 193.902 174.44 193.017 174.333 191.848H175.962ZM183.783 195L187.023 190.255L183.942 185.74H185.943L188.138 188.962L190.228 185.74H192.14L189.006 190.255L192.282 195H190.281L187.926 191.547L185.748 195H183.783Z" fill="#909090"/>
<path d="M387.7 97.0491C388.815 96.9251 389.612 96.7481 390.055 96.4825C390.48 96.2346 390.816 95.6326 391.046 94.6764H392.268V107H390.604V98.2354H387.7V97.0491ZM397.308 108.806C397.698 108.735 397.981 108.47 398.141 107.974C398.229 107.708 398.282 107.46 398.282 107.212V107.106C398.264 107.071 398.264 107.035 398.247 107H397.308V105.123H399.15V106.858C399.15 107.549 399.026 108.151 398.743 108.664C398.459 109.196 397.999 109.514 397.308 109.621V108.806ZM402.962 103.848C403.051 104.734 403.476 105.353 404.184 105.69C404.556 105.867 404.981 105.938 405.477 105.938C406.397 105.938 407.07 105.654 407.513 105.07C407.955 104.468 408.186 103.831 408.186 103.105C408.186 102.237 407.92 101.582 407.407 101.104C406.875 100.626 406.238 100.396 405.494 100.396C404.963 100.396 404.503 100.502 404.113 100.714C403.724 100.909 403.405 101.192 403.139 101.564L401.794 101.493L402.732 94.8358H409.159V96.3231H403.901L403.37 99.7758C403.653 99.5634 403.936 99.3863 404.184 99.2801C404.644 99.0853 405.193 98.9968 405.795 98.9968C406.929 98.9968 407.885 99.3509 408.681 100.095C409.461 100.821 409.868 101.759 409.868 102.874C409.868 104.043 409.496 105.088 408.788 105.973C408.062 106.858 406.893 107.319 405.317 107.319C404.308 107.319 403.405 107.018 402.644 106.451C401.865 105.902 401.44 105.017 401.333 103.848H402.962ZM410.783 107L414.023 102.255L410.942 97.7396H412.943L415.138 100.962L417.228 97.7396H419.14L416.006 102.255L419.282 107H417.281L414.926 103.547L412.748 107H410.783Z" fill="#909090"/>
<path fill-rule="evenodd" clip-rule="evenodd" d="M181.773 71.4232C181.773 60.3265 188.351 51.3469 200.776 51.3469C217.586 51.3469 218.682 66.3129 218.682 66.3129H208.45C208.45 66.3129 208.084 59.0124 200.776 59.0124C194.271 59.0124 192.005 64.5608 192.005 71.4232C192.005 78.2856 194.271 83.834 200.776 83.834C208.084 83.834 208.45 76.5335 208.45 76.5335H218.682C218.682 76.5335 217.586 91.4995 200.776 91.4995C188.351 91.4995 181.773 82.5199 181.773 71.4232ZM231.832 71.4232C231.832 78.2856 234.463 83.834 240.968 83.834C247.472 83.834 250.103 78.2856 250.103 71.4232C250.103 64.5608 247.472 59.0124 240.968 59.0124C234.463 59.0124 231.832 64.5608 231.832 71.4232ZM221.6 71.4232C221.6 60.3265 228.47 51.3469 240.968 51.3469C253.465 51.3469 260.335 60.3265 260.335 71.4232C260.335 82.5199 253.465 91.4995 240.968 91.4995C228.47 91.4995 221.6 82.5199 221.6 71.4232ZM292.516 90.4044V82.3739H273.879V52.442H263.647V90.4044H292.516ZM303.062 71.4232C303.062 78.2856 305.693 83.834 312.198 83.834C318.703 83.834 321.334 78.2856 321.334 71.4232C321.334 64.5608 318.703 59.0124 312.198 59.0124C305.693 59.0124 303.062 64.5608 303.062 71.4232ZM292.83 71.4232C292.83 60.3265 299.7 51.3469 312.198 51.3469C324.696 51.3469 331.566 60.3265 331.566 71.4232C331.566 82.5199 324.696 91.4995 312.198 91.4995C299.7 91.4995 292.83 82.5199 292.83 71.4232ZM345.429 73.6847L345.147 146.252H335.28V141.141H334.915C334.915 141.141 331.626 147.347 323.221 147.347C312.258 147.347 306.776 137.856 306.776 127.271C306.776 116.685 312.258 107.194 323.221 107.194C331.26 107.194 334.549 112.305 334.549 112.305H334.915L335.28 52.2582H345.512L345.496 56.3255C345.98 55.6002 348.61 52.2659 356.1 52.2659C357.291 52.2659 361.399 52.3754 364.14 52.996V63.5817C364.14 63.5817 361.034 60.479 354.639 61.3915C348.542 62.2615 345.682 66.781 345.429 73.6847ZM335.28 127.271C335.28 120.408 332.357 114.86 326.144 114.86C319.932 114.86 317.008 120.408 317.008 127.271C317.008 134.133 319.932 139.681 326.144 139.681C332.357 139.681 335.28 134.133 335.28 127.271ZM257.4 108.289V146.252H247.168V108.289H257.4ZM246.437 100.989C246.437 97.7766 249.069 95.1485 252.284 95.1485C255.5 95.1485 258.131 97.7766 258.131 100.989C258.131 104.201 255.5 106.829 252.284 106.829C249.069 106.829 246.437 104.201 246.437 100.989ZM205.889 146.252V125.08C205.889 118.51 204.573 115.59 200.554 115.59C196.168 115.59 193.83 118.875 193.83 126.54V146.252H183.598V108.289H193.464V114.495H193.83C193.83 114.495 196.388 107.194 204.062 107.194C210.201 107.194 213.49 110.114 214.952 114.568L215.025 114.495H215.39C215.39 114.495 218.679 107.194 226.353 107.194C235.854 107.194 238.412 114.13 238.412 122.89V146.252H228.18V125.08C228.18 118.51 226.865 115.59 222.845 115.59C218.46 115.59 216.121 118.875 216.121 126.54V146.252H205.889ZM265.471 108.289V146.252H275.703V126.54C275.703 118.875 278.627 115.59 284.108 115.59C288.859 115.59 290.686 118.51 290.686 125.08V146.252H300.918V122.89C300.918 114.13 297.995 107.194 287.397 107.194C278.992 107.194 275.703 114.495 275.703 114.495H275.338V108.289H265.471Z" fill="#222222"/>
<path d="M143.073 121.97C143.073 134.105 134.702 140.172 125.365 140.172C116.028 140.172 107.656 134.105 107.656 121.97" stroke="#FF58CF" stroke-width="12.2496"/>
<path d="M143.073 92.4753C143.073 104.61 134.702 110.677 125.365 110.677C116.028 110.677 107.656 104.61 107.656 92.4753L107.656 57.1869" stroke="#FF9E16" stroke-width="12.2496"/>
<path d="M156.214 57.2053C152.351 57.2053 149.191 60.3619 149.191 64.2199C149.191 68.0778 152.351 71.2344 156.214 71.2344C160.076 71.2344 163.236 68.0778 163.236 64.2199C163.236 60.3619 160.076 57.2053 156.214 57.2053Z" fill="#3858FF"/>
<path d="M84.1591 57.2054C80.2968 57.2054 77.1367 60.362 77.1367 64.22C77.1367 68.078 80.2968 71.2345 84.1591 71.2345C88.0214 71.2345 91.1814 68.078 91.1814 64.22C91.1814 60.362 88.0214 57.2054 84.1591 57.2054Z" fill="#3858FF"/>
<line x1="441" y1="51.3961" x2="1" y2="51.3961" stroke="#909090" stroke-width="0.792122"/>
<line x1="441" y1="0.396061" x2="1" y2="0.396061" stroke="#909090" stroke-width="0.792122"/>
<line x1="441" y1="199.396" x2="1" y2="199.396" stroke="#909090" stroke-width="0.792122"/>
<line x1="441" y1="148.396" x2="1" y2="148.396" stroke="#909090" stroke-width="0.792122"/>
<line x1="76.6039" y1="199" x2="76.604" y2="-1.4427e-08" stroke="#909090" stroke-width="0.792122"/>
<line x1="163.604" y1="175" x2="163.604" y2="-1.26958e-08" stroke="#909090" stroke-width="0.792122"/>
<line x1="181.604" y1="175" x2="181.604" y2="-1.26958e-08" stroke="#909090" stroke-width="0.792122"/>
<line x1="364.604" y1="199" x2="364.604" y2="-1.4427e-08" stroke="#909090" stroke-width="0.792122"/>
<line x1="440.604" y1="199" x2="440.604" y2="-1.4427e-08" stroke="#909090" stroke-width="0.792122"/>
<line x1="0.603939" y1="199" x2="0.603949" y2="-1.4427e-08" stroke="#909090" stroke-width="0.792122"/>
</svg>
