<svg width="331" height="405" viewBox="0 0 331 405" fill="none" xmlns="http://www.w3.org/2000/svg">
<path d="M278.062 66.7686C280.515 64.6547 284.333 66.1807 284.653 69.4035L287.769 100.763C287.837 101.45 288.082 102.107 288.479 102.671L306.271 127.928C307.937 130.293 306.619 133.59 303.782 134.155L273.482 140.186C272.806 140.321 272.175 140.629 271.652 141.079L247.777 161.649C245.324 163.763 241.506 162.237 241.186 159.014L238.07 127.654C238.002 126.968 237.757 126.31 237.36 125.746L219.568 100.49C217.902 98.1246 219.22 94.8278 222.057 94.263L252.357 88.2311C253.033 88.0964 253.664 87.7889 254.186 87.3385L278.062 66.7686Z" fill="#FFE047"/>
<path d="M61.9255 263.301C64.3787 261.191 68.1921 262.715 68.5144 265.935L70.6969 287.745C70.7656 288.431 71.0108 289.089 71.4087 289.653L83.9865 307.478C85.6559 309.844 84.3364 313.145 81.4961 313.708L60.0966 317.95C59.4196 318.084 58.7889 318.391 58.2657 318.842L41.6503 333.136C39.1972 335.247 35.3837 333.722 35.0615 330.502L32.8789 308.693C32.8102 308.006 32.565 307.349 32.1671 306.785L19.5893 288.96C17.9199 286.594 19.2394 283.293 22.0797 282.73L43.4793 278.488C44.1562 278.353 44.7869 278.046 45.3101 277.596L61.9255 263.301Z" fill="#FFE047"/>
</svg>
