<svg width="1360" height="604" viewBox="0 0 1360 604" fill="none" xmlns="http://www.w3.org/2000/svg">
<rect y="1" width="1360" height="603" rx="10" fill="#FFD875"/>
<path fill-rule="evenodd" clip-rule="evenodd" d="M1125.34 0.855767C1124.06 0.291492 1122.68 0 1121.29 0H1099.89C1089.08 0 1085.96 14.7691 1095.84 19.1442L1345.95 129.856C1352.56 132.782 1360 127.942 1360 120.712V111.237C1360 107.28 1357.67 103.694 1354.05 102.093L1125.34 0.855767ZM1360 13.6892C1360 20.9194 1352.56 25.76 1345.95 22.8334L1337.62 19.1442C1327.73 14.769 1330.86 0 1341.67 0H1350C1355.52 0 1360 4.47715 1360 10V13.6892ZM1360 218.258C1360 214.301 1357.67 210.716 1354.05 209.114L883.558 0.855769C882.283 0.291489 880.904 0 879.51 0H858.111C847.302 0 844.179 14.7691 854.063 19.1442L1345.95 236.877C1352.56 239.804 1360 234.963 1360 227.733V218.258ZM1360 325.28C1360 321.323 1357.67 317.738 1354.05 316.136L641.78 0.855771C640.505 0.291486 639.127 0 637.732 0H616.333C605.524 0 602.401 14.7691 612.285 19.1442L1345.95 343.9C1352.56 346.826 1360 341.986 1360 334.756V325.28ZM1360 432.303C1360 428.345 1357.67 424.76 1354.05 423.158L400.002 0.855763C398.727 0.291477 397.349 0 395.955 0H374.553C363.744 0 360.621 14.7691 370.505 19.1442L1345.95 450.922C1352.56 453.848 1360 449.008 1360 441.778V432.303ZM1360 539.325C1360 535.368 1357.67 531.782 1354.05 530.181L158.227 0.85579C156.952 0.291501 155.573 0 154.179 0H132.775C121.966 0 118.844 14.7691 128.728 19.1442L1345.95 557.944C1352.56 560.871 1360 556.03 1360 548.8V539.325ZM1227.22 602C1238.03 602 1241.15 587.231 1231.26 582.856L14.0477 44.0567C7.43637 41.1302 0 45.9708 0 53.2009V62.6756C0 66.633 2.33368 70.218 5.95235 71.8198L1201.77 601.144C1203.04 601.709 1204.42 602 1205.82 602H1227.22ZM985.439 602C996.248 602 999.37 587.231 989.486 582.856L14.0477 151.079C7.4363 148.152 0 152.993 0 160.223V169.697C0 173.655 2.33368 177.24 5.95235 178.842L959.992 601.144C961.266 601.709 962.645 602 964.039 602H985.439ZM743.661 602C754.47 602 757.593 587.231 747.709 582.856L14.0477 258.1C7.43632 255.174 0 260.014 0 267.245V276.72C0 280.677 2.33368 284.262 5.95234 285.864L718.214 601.144C719.489 601.708 720.867 602 722.261 602H743.661ZM501.883 602C512.692 602 515.815 587.231 505.931 582.856L14.0477 365.123C7.43633 362.196 0 367.037 0 374.267V383.742C0 387.699 2.33368 391.284 5.95234 392.886L476.436 601.144C477.711 601.708 479.09 602 480.484 602H501.883ZM260.108 602C270.917 602 274.04 587.231 264.156 582.856L14.0477 472.145C7.43634 469.218 0 474.059 0 481.289V490.764C0 494.721 2.33366 498.306 5.95231 499.908L234.656 601.144C235.931 601.708 237.309 602 238.704 602H260.108ZM18.3323 602C29.1412 602 32.2639 587.231 22.3801 582.856L14.0478 579.167C7.43646 576.241 0 581.081 0 588.312V592C0 597.523 4.47715 602 10 602H18.3323Z" fill="#FFDF8B"/>
</svg>
