<svg width="70" height="70" viewBox="0 0 70 70" fill="none" xmlns="http://www.w3.org/2000/svg">
<rect x="70" y="70" width="70" height="70" rx="35" transform="rotate(-180 70 70)" fill="white"/>
<path d="M33.9393 56.0607C34.5251 56.6464 35.4749 56.6464 36.0607 56.0607L45.6066 46.5147C46.1924 45.9289 46.1924 44.9792 45.6066 44.3934C45.0208 43.8076 44.0711 43.8076 43.4853 44.3934L35 52.8787L26.5147 44.3934C25.9289 43.8076 24.9792 43.8076 24.3934 44.3934C23.8076 44.9792 23.8076 45.9289 24.3934 46.5147L33.9393 56.0607ZM33.5 15L33.5 55L36.5 55L36.5 15L33.5 15Z" fill="#222222"/>
</svg>
