<svg width="440" height="300" viewBox="0 0 440 300" fill="none" xmlns="http://www.w3.org/2000/svg">
<rect width="440" height="300" rx="10" fill="#FFB245"/>
<mask id="mask0_21_423" style="mask-type:alpha" maskUnits="userSpaceOnUse" x="0" y="0" width="440" height="300">
<rect width="440" height="300" rx="20" fill="#FFBA59"/>
</mask>
<g mask="url(#mask0_21_423)">
<path d="M297.896 -15L316.159 22.8289L358.204 28.3067L327.447 57.164L335.168 98.3784L297.896 78.3843L260.623 98.3784L268.345 57.164L237.588 28.3067L279.632 22.8289L297.896 -15Z" fill="#FFBA59"/>
<path d="M297.896 241.595L316.159 279.424L358.204 284.901L327.447 313.759L335.168 354.973L297.896 334.979L260.623 354.973L268.345 313.759L237.588 284.901L279.632 279.424L297.896 241.595Z" fill="#FFBA59"/>
<path d="M297.896 110.348L316.159 148.622L358.204 154.164L327.447 183.361L335.168 225.06L297.896 204.831L260.623 225.06L268.345 183.361L237.588 154.164L279.632 148.622L297.896 110.348Z" fill="#FFBA59"/>
<path d="M46.4553 -15L64.5063 22.8289L106.062 28.3067L75.6625 57.164L83.2941 98.3784L46.4553 78.3843L9.61641 98.3784L17.2481 57.164L-13.1513 28.3067L28.4042 22.8289L46.4553 -15Z" fill="#FFBA59"/>
<path d="M46.4553 241.595L64.5063 279.424L106.062 284.901L75.6625 313.759L83.2941 354.973L46.4553 334.979L9.61641 354.973L17.2481 313.759L-13.1513 284.901L28.4042 279.424L46.4553 241.595Z" fill="#FFBA59"/>
<path d="M423.975 -15L442.026 22.8289L483.581 28.3067L453.182 57.164L460.814 98.3784L423.975 78.3843L387.136 98.3784L394.768 57.164L364.368 28.3067L405.924 22.8289L423.975 -15Z" fill="#FFBA59"/>
<path d="M423.975 241.595L442.026 279.424L483.581 284.901L453.182 313.759L460.814 354.973L423.975 334.979L387.136 354.973L394.768 313.759L364.368 284.901L405.924 279.424L423.975 241.595Z" fill="#FFBA59"/>
<path d="M44.9865 110.348L63.0376 148.622L104.593 154.164L74.1937 183.361L81.8254 225.06L44.9865 204.831L8.14766 225.06L15.7793 183.361L-14.62 154.164L26.9355 148.622L44.9865 110.348Z" fill="#FFBA59"/>
<path d="M422.502 110.348L440.553 148.622L482.109 154.164L451.709 183.361L459.341 225.06L422.502 204.831L385.663 225.06L393.295 183.361L362.896 154.164L404.451 148.622L422.502 110.348Z" fill="#FFBA59"/>
<path d="M171.068 -15L189.331 22.8289L231.375 28.3067L200.618 57.164L208.34 98.3784L171.068 78.3843L133.795 98.3784L141.517 57.164L110.76 28.3067L152.804 22.8289L171.068 -15Z" fill="#FFBA59"/>
<path d="M171.068 241.595L189.331 279.424L231.375 284.901L200.618 313.759L208.34 354.973L171.068 334.979L133.795 354.973L141.517 313.759L110.76 284.901L152.804 279.424L171.068 241.595Z" fill="#FFBA59"/>
<path d="M170.33 110.348L188.381 148.622L229.937 154.164L199.537 183.361L207.169 225.06L170.33 204.831L133.491 225.06L141.123 183.361L110.724 154.164L152.279 148.622L170.33 110.348Z" fill="#FFBA59"/>
</g>
</svg>
