<svg width="90" height="108" viewBox="0 0 90 108" fill="none" xmlns="http://www.w3.org/2000/svg">
<path d="M24.8007 6.83024C26.2943 3.95616 30.406 3.95616 31.8995 6.83024L38.2889 19.1259C38.6071 19.7381 39.0783 20.2577 39.6566 20.634L51.5482 28.3725C53.9726 29.9501 53.9726 33.5001 51.5482 35.0777L39.6566 42.8161C39.0783 43.1925 38.6071 43.7121 38.2889 44.3243L31.8995 56.6199C30.406 59.494 26.2943 59.494 24.8007 56.6199L18.4113 44.3243C18.0931 43.7121 17.622 43.1925 17.0436 42.8161L5.15199 35.0777C2.7276 33.5001 2.72761 29.9501 5.152 28.3725L17.0436 20.634C17.622 20.2577 18.0931 19.7381 18.4113 19.1259L24.8007 6.83024Z" fill="#FFBA59"/>
<path d="M63.7262 38.7786C65.2198 35.9049 69.331 35.9049 70.8246 38.7786L75.1458 47.0924C75.4641 47.7047 75.9353 48.2242 76.5136 48.6005L84.8471 54.0223C87.2719 55.5999 87.2719 59.1504 84.8471 60.728L76.5136 66.1498C75.9353 66.5261 75.4641 67.0456 75.1458 67.6579L70.8246 75.9717C69.331 78.8454 65.2198 78.8454 63.7262 75.9717L59.4049 67.6579C59.0867 67.0456 58.6155 66.5261 58.0371 66.1498L49.7037 60.728C47.2789 59.1504 47.2789 55.5999 49.7037 54.0223L58.0371 48.6005C58.6155 48.2242 59.0867 47.7047 59.4049 47.0924L63.7262 38.7786Z" fill="#FFBA59"/>
<path d="M32.6771 76.1141C34.1715 73.2438 38.2784 73.2438 39.7729 76.1141L42.1091 80.6012C42.4278 81.2133 42.8995 81.7326 43.4783 82.1085L48.3851 85.2954C50.8134 86.8726 50.8134 90.4273 48.3851 92.0045L43.4783 95.1914C42.8995 95.5673 42.4278 96.0866 42.1091 96.6987L39.7729 101.186C38.2784 104.056 34.1715 104.056 32.6771 101.186L30.3408 96.6987C30.0221 96.0866 29.5504 95.5673 28.9717 95.1914L24.0649 92.0045C21.6365 90.4273 21.6365 86.8726 24.0649 85.2954L28.9717 82.1085C29.5504 81.7326 30.0221 81.2133 30.3408 80.6012L32.6771 76.1141Z" fill="#FFBA59"/>
</svg>
