<svg width="96" height="115" viewBox="0 0 96 115" fill="none" xmlns="http://www.w3.org/2000/svg">
<path d="M26.6381 6.83028C28.1317 3.9562 32.2434 3.95619 33.7369 6.83027L40.8019 20.426C41.1201 21.0383 41.5913 21.5578 42.1696 21.9342L55.223 30.4286C57.6474 32.0063 57.6474 35.5562 55.223 37.1339L42.1696 45.6284C41.5913 46.0047 41.1201 46.5243 40.8019 47.1365L33.7369 60.7323C32.2434 63.6063 28.1317 63.6063 26.6381 60.7323L19.5731 47.1365C19.2549 46.5243 18.7838 46.0047 18.2054 45.6284L5.152 37.1339C2.72761 35.5562 2.72761 32.0063 5.15199 30.4286L18.2054 21.9342C18.7838 21.5578 19.2549 21.0383 19.5731 20.426L26.6381 6.83028Z" fill="#FFE047"/>
<path d="M68.0858 40.8494C69.5795 37.9758 73.6906 37.9758 75.1843 40.8494L80.0471 50.2052C80.3653 50.8175 80.8365 51.337 81.4149 51.7133L90.6796 57.741C93.1044 59.3186 93.1044 62.8691 90.6796 64.4467L81.4149 70.4744C80.8365 70.8507 80.3653 71.3702 80.0471 71.9825L75.1843 81.3382C73.6907 84.2119 69.5795 84.2119 68.0858 81.3382L63.2231 71.9825C62.9048 71.3702 62.4336 70.8507 61.8552 70.4744L52.5905 64.4467C50.1657 62.8691 50.1657 59.3186 52.5905 57.741L61.8552 51.7133C62.4336 51.337 62.9048 50.8175 63.2231 50.2052L68.0858 40.8494Z" fill="#FFE047"/>
<path d="M35.0239 80.6058C36.5184 77.7355 40.6253 77.7355 42.1197 80.6058L44.8688 85.8859C45.1875 86.498 45.6592 87.0173 46.238 87.3932L51.8548 91.0412C54.2831 92.6184 54.2832 96.1732 51.8548 97.7503L46.238 101.398C45.6592 101.774 45.1875 102.294 44.8688 102.906L42.1197 108.186C40.6253 111.056 36.5184 111.056 35.0239 108.186L32.2748 102.906C31.9561 102.294 31.4844 101.774 30.9057 101.398L25.2889 97.7503C22.8605 96.1732 22.8605 92.6184 25.2889 91.0412L30.9057 87.3932C31.4844 87.0173 31.9561 86.498 32.2748 85.8859L35.0239 80.6058Z" fill="#FFE047"/>
</svg>
