<svg width="440" height="276" viewBox="0 0 440 276" fill="none" xmlns="http://www.w3.org/2000/svg">
<g clip-path="url(#clip0_841_989)">
<rect width="440" height="276" rx="10" fill="#F9F761"/>
<path d="M31.32 48.23C31.32 46.61 31.53 45.14 31.95 43.76C32.4 42.38 33.03 41.18 33.9 40.16C34.77 39.14 35.82 38.36 37.14 37.79C38.43 37.22 39.96 36.92 41.67 36.92C43.26 36.92 44.7 37.22 45.99 37.79C47.25 38.36 48.36 39.14 49.26 40.16C50.13 41.18 50.82 42.38 51.3 43.76C51.78 45.14 52.02 46.61 52.02 48.23C52.02 49.82 51.78 51.32 51.3 52.7C50.82 54.08 50.13 55.28 49.26 56.3C48.36 57.29 47.25 58.1 45.99 58.67C44.7 59.24 43.26 59.54 41.67 59.54C39.96 59.54 38.43 59.24 37.14 58.67C35.82 58.1 34.77 57.29 33.9 56.3C33.03 55.28 32.4 54.08 31.95 52.7C31.53 51.32 31.32 49.82 31.32 48.23ZM41.67 55.64C42.6 55.64 43.41 55.46 44.13 55.1C44.85 54.71 45.48 54.2 45.99 53.54C46.47 52.88 46.86 52.1 47.13 51.2C47.4 50.3 47.52 49.31 47.52 48.23C47.52 47.15 47.4 46.16 47.13 45.26C46.86 44.36 46.47 43.58 45.99 42.92C45.48 42.26 44.85 41.75 44.13 41.39C43.41 41 42.6 40.82 41.67 40.82C40.74 40.82 39.93 41 39.21 41.39C38.49 41.75 37.89 42.26 37.38 42.92C36.87 43.58 36.48 44.36 36.24 45.26C35.94 46.16 35.82 47.15 35.82 48.23C35.82 49.31 35.94 50.3 36.24 51.2C36.48 52.1 36.87 52.88 37.38 53.54C37.89 54.2 38.49 54.71 39.21 55.1C39.93 55.46 40.74 55.64 41.67 55.64ZM73.1892 48.77C73.0992 48.17 72.9192 47.63 72.5892 47.15C72.1092 46.49 71.3892 46.19 70.3992 46.19C68.9892 46.19 68.0292 46.88 67.5192 48.29C67.2492 49.01 67.0992 50 67.0992 51.23C67.0992 52.4 67.2492 53.36 67.5192 54.05C67.9992 55.4 68.9592 56.06 70.3392 56.06C71.2992 56.06 71.9892 55.79 72.4092 55.25C72.8292 54.74 73.0692 54.05 73.1592 53.21H77.4192C77.3292 54.5 76.8492 55.7 76.0392 56.81C74.7492 58.64 72.7992 59.57 70.2192 59.57C67.6692 59.57 65.7792 58.79 64.5492 57.26C63.3492 55.76 62.7492 53.78 62.7492 51.35C62.7492 48.59 63.4092 46.46 64.7592 44.93C66.0792 43.4 67.9392 42.65 70.2792 42.65C72.2892 42.65 73.9392 43.1 75.1992 44C76.4892 44.9 77.2392 46.49 77.4492 48.77H73.1892ZM93.6391 57.05C92.2891 58.73 90.2491 59.57 87.4891 59.57C84.7591 59.57 82.7191 58.73 81.3691 57.05C80.0191 55.4 79.3291 53.39 79.3291 51.05C79.3291 48.74 80.0191 46.73 81.3691 45.05C82.7191 43.37 84.7591 42.53 87.4891 42.53C90.2491 42.53 92.2891 43.37 93.6391 45.05C94.9891 46.73 95.6491 48.74 95.6491 51.05C95.6491 53.39 94.9891 55.4 93.6391 57.05ZM90.2791 54.74C90.9391 53.9 91.2691 52.64 91.2691 51.05C91.2691 49.46 90.9391 48.2 90.2791 47.33C89.6191 46.49 88.6891 46.04 87.4891 46.04C86.2591 46.04 85.3291 46.49 84.6691 47.33C84.0091 48.2 83.6791 49.46 83.6791 51.05C83.6791 52.64 84.0091 53.9 84.6691 54.74C85.3291 55.61 86.2591 56.06 87.4891 56.06C88.6891 56.06 89.6191 55.61 90.2791 54.74ZM98.749 37.4H102.919V59H98.749V37.4ZM120.329 57.05C118.979 58.73 116.939 59.57 114.179 59.57C111.449 59.57 109.409 58.73 108.059 57.05C106.709 55.4 106.019 53.39 106.019 51.05C106.019 48.74 106.709 46.73 108.059 45.05C109.409 43.37 111.449 42.53 114.179 42.53C116.939 42.53 118.979 43.37 120.329 45.05C121.679 46.73 122.339 48.74 122.339 51.05C122.339 53.39 121.679 55.4 120.329 57.05ZM116.969 54.74C117.629 53.9 117.959 52.64 117.959 51.05C117.959 49.46 117.629 48.2 116.969 47.33C116.309 46.49 115.379 46.04 114.179 46.04C112.949 46.04 112.019 46.49 111.359 47.33C110.699 48.2 110.369 49.46 110.369 51.05C110.369 52.64 110.699 53.9 111.359 54.74C112.019 55.61 112.949 56.06 114.179 56.06C115.379 56.06 116.309 55.61 116.969 54.74ZM134.228 42.65C134.258 42.68 134.378 42.68 134.588 42.68V46.97C134.318 46.94 134.078 46.91 133.868 46.91C133.658 46.88 133.508 46.88 133.388 46.88C131.678 46.88 130.568 47.42 129.998 48.53C129.668 49.13 129.518 50.09 129.518 51.38V59H125.288V43.04H129.278V45.83C129.938 44.75 130.478 44.03 130.958 43.64C131.738 42.98 132.758 42.65 134.018 42.65H134.228ZM156.929 43.1C157.619 43.37 158.219 43.85 158.789 44.54C159.239 45.08 159.539 45.77 159.689 46.58C159.809 47.12 159.839 47.9 159.839 48.95L159.809 59H155.549V48.83C155.549 48.23 155.429 47.75 155.249 47.33C154.889 46.58 154.199 46.22 153.179 46.22C152.039 46.22 151.259 46.7 150.809 47.66C150.599 48.17 150.479 48.77 150.479 49.49V59H146.279V49.49C146.279 48.53 146.159 47.84 145.979 47.42C145.619 46.64 144.929 46.28 143.909 46.28C142.709 46.28 141.929 46.64 141.509 47.42C141.299 47.87 141.179 48.53 141.179 49.4V59H136.919V43.07H140.999V45.38C141.509 44.57 141.989 43.97 142.469 43.61C143.249 42.98 144.329 42.68 145.619 42.68C146.819 42.68 147.809 42.95 148.559 43.49C149.159 44 149.639 44.63 149.939 45.41C150.479 44.48 151.169 43.79 151.979 43.34C152.849 42.89 153.809 42.68 154.859 42.68C155.549 42.68 156.239 42.8 156.929 43.1ZM163.729 37.28H167.959V41.12H163.729V37.28ZM167.959 59H163.729V43.04H167.959V59ZM184.918 43.94C185.968 44.81 186.478 46.25 186.478 48.26V59H182.218V49.28C182.218 48.44 182.098 47.81 181.888 47.36C181.468 46.52 180.688 46.13 179.518 46.13C178.108 46.13 177.148 46.73 176.608 47.93C176.338 48.56 176.218 49.37 176.218 50.36V59H172.048V43.07H176.068V45.38C176.608 44.57 177.118 44 177.598 43.61C178.468 42.98 179.548 42.65 180.868 42.65C182.518 42.65 183.868 43.07 184.918 43.94ZM198.818 43.28C199.568 43.7 200.198 44.3 200.648 45.05V37.43H204.878V59H200.828V56.78C200.228 57.74 199.568 58.43 198.788 58.85C198.038 59.27 197.078 59.51 195.938 59.51C194.078 59.51 192.518 58.73 191.258 57.23C189.968 55.73 189.338 53.78 189.338 51.44C189.338 48.71 189.968 46.55 191.228 44.99C192.458 43.43 194.138 42.65 196.238 42.65C197.198 42.65 198.068 42.86 198.818 43.28ZM199.838 54.65C200.468 53.78 200.768 52.64 200.768 51.26C200.768 49.31 200.288 47.9 199.298 47.06C198.698 46.55 197.978 46.31 197.168 46.31C195.968 46.31 195.068 46.76 194.498 47.69C193.928 48.59 193.628 49.76 193.628 51.11C193.628 52.61 193.928 53.78 194.528 54.65C195.098 55.55 195.968 55.97 197.168 55.97C198.338 55.97 199.238 55.55 199.838 54.65Z" fill="#222222"/>
<rect x="30" y="176" width="70" height="70" rx="35" fill="white"/>
<path d="M80.7843 196.858C80.7843 196.029 80.1127 195.358 79.2843 195.358L65.7843 195.358C64.9558 195.358 64.2843 196.029 64.2843 196.858C64.2843 197.686 64.9558 198.358 65.7843 198.358L77.7843 198.358L77.7843 210.358C77.7843 211.186 78.4558 211.858 79.2843 211.858C80.1127 211.858 80.7843 211.186 80.7843 210.358L80.7843 196.858ZM52.0607 226.203L80.3449 197.918L78.2236 195.797L49.9393 224.081L52.0607 226.203Z" fill="#222222"/>
<path d="M395.776 226.168C395.776 239.389 386.665 246 376.502 246C366.34 246 357.229 239.389 357.229 226.168" stroke="#FF58CF" stroke-width="13.2922"/>
<path d="M395.776 194.03C395.776 207.252 386.665 213.862 376.502 213.862C366.34 213.862 357.229 207.252 357.229 194.03L357.229 155.58" stroke="#FF9E16" stroke-width="13.2922"/>
<path d="M410.069 155.601C405.865 155.601 402.426 159.04 402.426 163.244C402.426 167.447 405.865 170.887 410.069 170.887C414.272 170.887 417.712 167.447 417.712 163.244C417.712 159.04 414.272 155.601 410.069 155.601Z" fill="#3858FF"/>
<path d="M331.643 155.601C327.439 155.601 324 159.04 324 163.244C324 167.447 327.439 170.887 331.643 170.887C335.847 170.887 339.286 167.447 339.286 163.244C339.286 159.04 335.847 155.601 331.643 155.601Z" fill="#3858FF"/>
</g>
<defs>
<clipPath id="clip0_841_989">
<rect width="440" height="276" fill="white"/>
</clipPath>
</defs>
</svg>
