<svg width="94" height="98" viewBox="0 0 94 98" fill="none" xmlns="http://www.w3.org/2000/svg">
<path d="M71.7758 70.5876C71.7758 83.8092 62.6646 90.4199 52.5021 90.4199C42.3397 90.4199 33.2285 83.8092 33.2285 70.5876" stroke="#FF58CF" stroke-width="13.2922"/>
<path d="M71.7758 38.4499C71.7758 51.6715 62.6646 58.2822 52.5021 58.2822C42.3397 58.2822 33.2285 51.6715 33.2285 38.4499L33.2285 -0.000106812" stroke="#FF9E16" stroke-width="13.2922"/>
<path d="M86.0688 0.0205078C81.8651 0.0205078 78.4258 3.45985 78.4258 7.6635C78.4258 11.8671 81.8651 15.3065 86.0688 15.3065C90.2724 15.3065 93.7118 11.8671 93.7118 7.6635C93.7118 3.45985 90.2724 0.0205078 86.0688 0.0205078Z" fill="#3858FF"/>
<path d="M7.64299 0.0205078C3.43935 0.0205078 0 3.45985 0 7.6635C0 11.8671 3.43935 15.3065 7.64299 15.3065C11.8466 15.3065 15.286 11.8671 15.286 7.6635C15.286 3.45985 11.8466 0.0205078 7.64299 0.0205078Z" fill="#3858FF"/>
</svg>
