<svg width="34" height="34" viewBox="0 0 34 34" fill="none" xmlns="http://www.w3.org/2000/svg">
<path d="M19.8323 17V28.1633C19.889 28.5883 19.7473 29.0417 19.4215 29.3392C19.2904 29.4705 19.1347 29.5747 18.9633 29.6458C18.792 29.7169 18.6083 29.7535 18.4227 29.7535C18.2372 29.7535 18.0535 29.7169 17.8821 29.6458C17.7107 29.5747 17.555 29.4705 17.424 29.3392L14.5765 26.4917C14.422 26.3406 14.3046 26.1558 14.2334 25.9519C14.1621 25.7479 14.1389 25.5302 14.1656 25.3158V17H14.1231L5.96313 6.545C5.73308 6.24967 5.62927 5.87528 5.6744 5.50365C5.71952 5.13202 5.90991 4.79336 6.20397 4.56167C6.47313 4.36333 6.77063 4.25 7.0823 4.25H26.9156C27.2273 4.25 27.5248 4.36333 27.794 4.56167C28.088 4.79336 28.2784 5.13202 28.3235 5.50365C28.3687 5.87528 28.2649 6.24967 28.0348 6.545L19.8748 17H19.8323Z" fill="#222222"/>
</svg>
