<svg width="37" height="37" viewBox="0 0 37 37" fill="none" xmlns="http://www.w3.org/2000/svg">
<g clip-path="url(#clip0_2094_10471)">
<path d="M30.5235 32.6566H16.4954C15.2293 32.6566 12.665 30.9937 12.665 29.6348V17.2529C12.665 16.9763 12.814 16.7209 13.0542 16.5871C15.8525 15.0246 17.2676 12.2491 18.745 7.98851V3.90579C18.745 3.76747 18.7815 3.63219 18.853 3.51363C19.315 2.74451 20.1146 2.30371 21.0463 2.30371C22.2456 2.30371 23.5072 3.02875 24.4222 4.23563C25.3449 5.45923 26.6612 8.16027 25.5744 12.8936H31.9782C33.4039 12.8936 36.637 14.3619 36.637 16.7756C36.637 17.5706 36.5427 18.7836 36.0366 19.4934C36.4348 20.6076 36.5108 22.4148 35.2872 23.6886C35.3875 25.8348 34.8479 27.3944 33.7094 28.2486C33.6897 29.3825 33.1683 30.7688 32.381 31.6716C31.8262 32.3161 31.1817 32.6566 30.5235 32.6566ZM14.1881 17.6846V29.6318C14.3127 30.0392 15.854 31.1336 16.4985 31.1336H30.525C30.7257 31.1336 30.9886 30.9618 31.247 30.6654C31.8611 29.9586 32.2928 28.7137 32.1864 27.9431C32.1652 27.7893 32.1913 27.6327 32.2614 27.4942C32.3315 27.3557 32.4421 27.2419 32.5786 27.1679C33.8128 26.5021 33.8462 24.5398 33.7596 23.4271C33.7501 23.3059 33.7697 23.1842 33.8167 23.0721C33.8638 22.96 33.937 22.8608 34.0302 22.7827C35.1337 21.8646 34.7932 20.1804 34.477 19.6986C34.4103 19.5963 34.3693 19.4794 34.3573 19.3579C34.3453 19.2364 34.3628 19.1137 34.4083 19.0004C34.4538 18.887 34.5259 18.7863 34.6186 18.7068C34.7113 18.6272 34.8217 18.5712 34.9406 18.5434C34.9087 18.5023 35.1276 17.8822 35.1276 16.768C35.1276 15.5323 32.8689 14.406 31.9903 14.406H24.6062C24.3675 14.406 24.1441 14.2965 24.0027 14.1065C23.8614 13.9165 23.8127 13.6703 23.8781 13.4408C24.8509 10.001 24.6092 6.97923 23.2245 5.14459C22.4858 4.16267 21.6194 3.81611 21.06 3.81611C20.7271 3.81611 20.4642 3.92403 20.2757 4.13987V8.10251C20.2757 8.19067 20.2605 8.26819 20.2346 8.35027C18.7192 12.7324 17.1642 15.8408 14.1881 17.6846Z" fill="#909090"/>
<path d="M11.5217 34.1741H3.17389C2.46705 34.1733 1.78939 33.8921 1.28958 33.3923C0.789765 32.8925 0.508617 32.2149 0.507812 31.508V15.5571C0.507812 14.0873 1.70405 12.8926 3.17389 12.8926H11.5217C12.9916 12.8926 14.1878 14.0873 14.1878 15.5571V31.508C14.1878 32.9779 12.9916 34.1741 11.5217 34.1741ZM3.17389 14.4126C2.8702 14.4126 2.57892 14.5331 2.36403 14.7477C2.14914 14.9623 2.02822 15.2534 2.02781 15.5571V31.508C2.02781 32.1403 2.54157 32.6541 3.17389 32.6541H11.5217C11.8256 32.6537 12.1168 32.5328 12.3317 32.318C12.5465 32.1031 12.6674 31.8119 12.6678 31.508V15.5571C12.6674 15.2534 12.5465 14.9623 12.3316 14.7477C12.1167 14.5331 11.8254 14.4126 11.5217 14.4126H3.17389Z" fill="#909090"/>
<path d="M7.77953 21.6659C8.07229 21.9586 7.95149 22.5891 8.3299 22.8019C8.51174 22.9042 8.68839 22.8892 8.87017 22.9585C9.37778 23.1519 9.67964 23.0408 9.86993 22.5545C10.1231 21.9074 10.3064 20.5232 9.84973 19.939C9.35392 19.3048 8.65147 19.121 7.88052 19.121C7.43774 19.121 7.09791 19.5754 6.91611 19.939C6.87037 20.0305 6.49459 20.5752 6.598 20.5752C7.52633 20.5752 8.57151 20.0694 9.17313 19.3583C9.34461 19.1557 9.41549 19.083 9.41549 18.8029C9.41549 18.6677 9.60605 18.4369 9.73865 18.399C9.77753 18.3879 10.3445 18.3384 10.2688 18.3081C10.0799 18.2325 9.65706 18.4785 9.52658 18.5959C9.37757 18.73 9.22544 18.7006 9.05195 18.7777C8.84723 18.8687 8.72519 19.0369 8.55207 19.1715C8.13453 19.4963 8.14463 19.8004 7.87042 20.2117" stroke="#909090" stroke-width="9" stroke-linecap="round"/>
<path d="M8.23401 15.5762C7.67522 15.5762 7.11644 15.5762 6.55765 15.5762C6.12732 15.5762 5.75601 15.8488 5.37107 15.8488C4.98907 15.8488 4.57844 16.1215 4.18954 16.1215C3.94726 16.1215 4.15917 15.8488 3.91688 15.8488C3.76362 15.8488 3.50789 15.7786 3.50789 15.9852C3.50789 16.4 3.59878 16.9283 3.59878 17.3939C3.59878 18.22 3.39211 18.9855 3.32107 19.8024C3.25248 20.5912 2.96257 21.3675 2.96257 22.1604C2.96257 22.8335 2.87169 23.5238 2.87169 24.2104C2.87169 25.8911 2.61182 27.6308 2.98277 29.3001C3.08562 29.7629 3.0723 30.3193 3.25543 30.7543C3.43349 31.1772 3.74455 31.0286 4.05321 30.7543C5.11025 29.8147 5.05297 28.0751 5.05297 26.7754C5.05297 26.5436 5.12919 26.1542 5.03277 25.9373C5.00859 25.8829 4.75848 25.3415 4.89139 25.3415C5.20222 25.3415 5.14015 26.2507 5.14386 26.3917C5.16651 27.2525 5.31045 28.179 5.46196 29.0274C5.54574 29.4966 5.46695 30.2594 5.82551 30.6179C6.35173 31.1442 7.49562 31.3596 8.00174 30.7088C8.33333 30.2825 7.76262 29.4575 7.64324 29.0729C7.47998 28.5468 7.26112 27.82 7.42108 27.2602C7.47423 27.0741 7.674 27.5707 7.68364 27.6237C7.75 27.9887 7.84549 28.329 7.87551 28.7043C7.94047 29.5163 8.19628 30.4632 8.42083 31.2491C8.75255 32.4101 11.2333 31.217 11.2333 30.2998C11.2333 29.826 11.415 29.3398 11.415 28.8658C11.415 28.472 11.415 28.0782 11.415 27.6843C11.415 27.1977 11.5215 26.8436 11.5968 26.3917C11.658 26.0249 12.1682 25.7034 12.3239 25.3919" stroke="#909090" stroke-width="4" stroke-linecap="round"/>
<path d="M4.68945 31.6632C5.57912 31.6632 6.43978 31.5723 7.32517 31.5723" stroke="#909090" stroke-width="4" stroke-linecap="round"/>
<path d="M15.5058 17.8491C15.5058 18.7276 15.5058 19.6062 15.5058 20.4848C15.5058 21.0198 15.4445 21.595 15.5108 22.1258C15.6188 22.9896 15.8693 23.817 15.8693 24.706C15.8693 25.4669 15.7507 26.8733 16.6166 27.1397C17.3525 27.3661 18.1375 27.3817 18.8686 27.6143C19.861 27.9301 20.9658 28.224 22.0092 28.296C23.1072 28.3717 24.0311 28.3 24.958 27.6648C26.096 26.8851 26.7726 25.8326 27.6341 24.8069C28.9767 23.2086 29.3206 20.7706 29.3206 18.7579C29.3206 18.1534 29.6535 16.7584 28.7248 16.7584C27.5235 16.7584 26.5308 17.2523 25.5538 17.9601C24.2202 18.9264 23.1031 20.3074 22.2112 21.6814C21.6985 22.4713 21.2463 23.2619 21.1408 24.2111C21.0885 24.6817 20.9442 25.1697 21.1812 25.6098C21.3847 25.9878 21.7517 25.9195 22.1355 25.9834C23.5982 26.2272 25.4227 25.2775 26.3415 24.1707C26.8672 23.5375 27.0115 22.8113 27.0434 21.9995C27.0561 21.6747 27.214 20.7006 26.907 20.4494C26.2492 19.9112 25.4141 21.7385 25.2307 22.1106C25.027 22.5239 24.8923 22.973 24.7056 23.3931C24.5921 23.6485 25.141 22.7637 25.2307 22.6459C25.6177 22.1373 26.3213 21.2064 26.3213 20.5302C26.3213 20.2379 24.911 20.3994 24.7359 20.4141C23.689 20.5019 22.7159 20.9752 21.777 21.4138C20.5417 21.991 19.3835 22.6943 18.2526 23.4537C17.412 24.0182 16.5912 24.6708 15.8744 25.3876C15.4508 25.8112 16.4632 24.9827 16.6015 24.8928C18.277 23.8037 19.4851 21.9997 21.262 21.0806C21.7459 20.8303 23.0494 19.956 23.0494 20.9594C23.0494 21.8007 22.4766 22.4108 21.9032 22.9842C21.0036 23.8838 19.8948 24.575 18.8787 25.3371C18.4275 25.6755 17.8813 25.8756 17.4346 26.2106C17.3174 26.2985 17.68 26.6356 17.4144 26.6651C17.028 26.708 16.363 26.9846 16.0309 27.2104C15.8494 27.3338 15.1523 27.7365 15.1523 27.9779C15.1523 27.9988 16.0415 28.0558 16.1622 28.19C16.6718 28.7562 16.863 29.3008 17.7376 29.3008C18.8248 29.3008 19.9121 29.3008 20.9994 29.3008C21.8895 29.3008 23.2147 29.5119 24.0037 29.0736C24.1624 28.9854 24.3446 29.0786 24.5036 29.0079C24.8138 28.8701 25.1505 28.8033 25.4831 28.7353C26.1292 28.6031 26.7691 28.4605 27.4069 28.301C28.2502 28.0902 28.7769 27.5192 29.2297 26.8266C29.7916 25.9673 29.8328 24.9557 30.2497 24.0294C30.3967 23.7025 30.4285 23.2474 30.5072 22.8933C30.6287 22.3465 30.9416 21.8065 31.0424 21.2523C31.254 20.0887 31.411 18.8527 31.411 17.6572C31.411 17.3397 31.5632 16.6424 31.2292 16.4656C30.9155 16.2995 30.3967 16.3949 30.0477 16.3949C29.2548 16.3949 28.5811 16.6675 27.7957 16.6675C26.9049 16.6675 26.1309 16.4857 25.2307 16.4857C24.343 16.4857 23.3755 16.318 22.6404 16.8897C22.012 17.3784 21.4858 17.828 21.0701 18.5156C20.7008 19.1263 20.2522 19.6759 19.7371 20.1616C19.3462 20.5301 18.9023 20.7574 18.3687 20.7574C17.946 20.7574 17.8015 20.1762 17.6871 19.8688C17.3257 18.8977 17.5349 17.4101 18.091 16.5362C18.7272 15.5366 19.1447 14.5737 20.0047 13.7137C20.3816 13.3368 21.5495 12.6223 21.3225 11.9414" stroke="#909090" stroke-width="4" stroke-linecap="round"/>
<path d="M22.0496 9.39648C22.2897 9.4265 22.1924 13.4555 22.0951 13.8449C21.9056 14.603 21.7475 15.3674 21.575 16.1221C21.49 16.4939 21.3642 17.623 20.959 17.7581" stroke="#909090" stroke-width="4" stroke-linecap="round"/>
<path d="M15.6875 27.6642C15.6875 28.5643 16.2797 29.2093 17.1871 29.2093C17.8292 29.2093 18.4505 29.3002 19.0958 29.3002C20.674 29.3002 21.9565 28.5083 23.1402 27.4824" stroke="#909090" stroke-width="4" stroke-linecap="round"/>
<path d="M14.6875 28.5732C15.3876 28.5732 15.5133 29.2121 16.0508 29.3912" stroke="#909090" stroke-width="4" stroke-linecap="round"/>
<path d="M23.7764 29.3004C24.1686 29.3439 24.4967 29.8457 24.9125 29.8457C25.2911 29.8457 25.6698 29.8457 26.0485 29.8457C26.4068 29.8457 26.8518 29.8583 27.1796 29.7093C27.6412 29.4995 28.2615 29.7548 28.7347 29.7548C29.6032 29.7548 30.524 29.9333 31.0019 29.0731C31.1462 28.8134 31.5752 27.383 31.2291 27.21" stroke="#909090" stroke-width="4" stroke-linecap="round"/>
<path d="M30.6836 27.4826C30.8509 27.2944 31.4107 26.6575 31.4107 26.4374C31.4107 25.978 31.4225 25.6793 31.6833 25.2811C31.8849 24.9734 31.9553 24.6008 32.2287 24.347C32.42 24.1693 32.5773 23.9489 32.6831 23.7108C32.849 23.3375 32.8733 22.9576 33.0265 22.5747C33.1878 22.1714 33.2284 21.6946 33.2284 21.2619C33.2284 20.9122 33.4102 20.5763 33.4102 20.2116C33.4102 19.4542 33.4102 18.6968 33.4102 17.9395" stroke="#909090" stroke-width="4" stroke-linecap="round"/>
<path d="M33.9556 17.2121C33.9556 16.7973 33.9656 16.6896 33.6375 16.4345C33.3311 16.1961 32.7867 16.198 32.4106 16.1012C31.2581 15.8049 30.01 15.667 28.8205 15.667C28.3032 15.667 27.8077 15.7353 27.3007 15.7579C26.9479 15.7736 26.5743 15.836 26.2252 15.8942C25.8081 15.9637 25.3642 15.8722 24.9579 15.9851C24.2356 16.1857 23.2601 16.0305 22.5039 16.0305" stroke="#909090" stroke-width="4" stroke-linecap="round"/>
<path d="M21.1398 5.30608C21.1398 6.7309 21.2334 8.18788 21.0287 9.59796C20.9684 10.0135 20.8955 10.4269 20.8217 10.8401C20.804 10.9393 20.8226 11.2921 20.7561 11.3753C20.5198 11.6707 20.1061 11.8697 19.8674 12.168C19.7794 12.2781 19.633 12.2972 19.5039 12.3044C19.3393 12.3135 19.1732 12.5303 19.0494 12.6275C18.9025 12.743 18.2911 13.6148 18.6404 12.986C18.8861 12.5438 19.1593 12.0442 19.3928 11.5773C19.6443 11.0743 20.3218 10.5207 20.3218 9.94131C20.3218 9.35016 20.6252 8.54089 20.7763 7.93675C20.978 7.13001 21.0616 6.31737 21.3014 5.50805C21.3822 5.23524 21.5202 4.86481 21.5034 4.57899C21.4786 4.15774 20.9499 4.64412 20.8217 4.71532C20.524 4.8807 20.8179 5.19811 20.8722 5.44241C20.9388 5.74226 21.2768 4.99782 21.3216 4.89709C21.6828 4.08449 22.3297 4.42402 22.6142 4.99303C22.8633 5.49113 23.0561 5.99804 23.3009 6.48761C23.5859 7.05759 24.0482 7.84638 24.0482 8.48712C24.0482 9.72961 24.1391 13.456 24.1391 12.2135C24.1391 11.5924 24.0235 10.9691 23.7755 10.3957C23.5473 9.86784 23.4935 9.21246 23.1797 8.71939C22.967 8.38504 22.6208 8.02536 22.4627 7.66409C22.2988 7.28931 22.3078 6.54369 21.8669 6.39673" stroke="#909090" stroke-width="2" stroke-linecap="round"/>
</g>
<defs>
<clipPath id="clip0_2094_10471">
<rect width="36.48" height="36.48" fill="white" transform="translate(0.333008)"/>
</clipPath>
</defs>
</svg>
