<svg width="24" height="24" viewBox="0 0 24 24" fill="none" xmlns="http://www.w3.org/2000/svg">
<path d="M19.8623 21.484H10.6333C9.80028 21.484 8.11328 20.39 8.11328 19.496V11.35C8.11328 11.168 8.21128 11 8.36928 10.912C10.2103 9.88401 11.1413 8.05801 12.1133 5.25501V2.56901C12.1133 2.47801 12.1373 2.38901 12.1843 2.31101C12.4883 1.80501 13.0143 1.51501 13.6273 1.51501C14.4163 1.51501 15.2463 1.99201 15.8483 2.78601C16.4553 3.59101 17.3213 5.36802 16.6063 8.48202H20.8193C21.7573 8.48202 23.8843 9.44801 23.8843 11.036C23.8843 11.559 23.8223 12.357 23.4893 12.824C23.7513 13.557 23.8013 14.746 22.9963 15.584C23.0623 16.996 22.7073 18.022 21.9583 18.584C21.9453 19.33 21.6023 20.242 21.0843 20.836C20.7193 21.26 20.2953 21.484 19.8623 21.484ZM9.11528 11.634V19.494C9.19728 19.762 10.2113 20.482 10.6353 20.482H19.8633C19.9953 20.482 20.1683 20.369 20.3383 20.174C20.7423 19.709 21.0263 18.89 20.9563 18.383C20.9423 18.2819 20.9595 18.1788 21.0056 18.0877C21.0517 17.9966 21.1245 17.9217 21.2143 17.873C22.0263 17.435 22.0483 16.144 21.9913 15.412C21.985 15.3323 21.9979 15.2522 22.0289 15.1784C22.0598 15.1047 22.108 15.0394 22.1693 14.988C22.8953 14.384 22.6713 13.276 22.4633 12.959C22.4194 12.8917 22.3924 12.8148 22.3845 12.7349C22.3766 12.6549 22.3881 12.5742 22.4181 12.4997C22.448 12.4251 22.4954 12.3588 22.5564 12.3065C22.6174 12.2542 22.69 12.2173 22.7683 12.199C22.7473 12.172 22.8913 11.764 22.8913 11.031C22.8913 10.218 21.4053 9.47702 20.8273 9.47702H15.9693C15.8123 9.47702 15.6653 9.40501 15.5723 9.28001C15.4793 9.15501 15.4473 8.99301 15.4903 8.84201C16.1303 6.57901 15.9713 4.59101 15.0603 3.38401C14.5743 2.73801 14.0043 2.51001 13.6363 2.51001C13.4173 2.51001 13.2443 2.58101 13.1203 2.72301V5.33001C13.1203 5.38801 13.1103 5.43901 13.0933 5.49301C12.0963 8.37601 11.0733 10.421 9.11528 11.634Z" fill="#909090"/>
<path d="M7.36123 22.484H1.86923C1.40421 22.4835 0.958378 22.2985 0.629554 21.9697C0.30073 21.6409 0.115764 21.1951 0.115234 20.73V10.236C0.115234 9.26903 0.902234 8.48303 1.86923 8.48303H7.36123C8.32823 8.48303 9.11523 9.26903 9.11523 10.236V20.73C9.11523 21.697 8.32823 22.484 7.36123 22.484ZM1.86923 9.48303C1.66943 9.48303 1.4778 9.56233 1.33643 9.70352C1.19506 9.84471 1.1155 10.0362 1.11523 10.236V20.73C1.11523 21.146 1.45323 21.484 1.86923 21.484H7.36123C7.56113 21.4838 7.75276 21.4042 7.8941 21.2629C8.03545 21.1216 8.11497 20.9299 8.11523 20.73V10.236C8.11497 10.0362 8.03541 9.84471 7.89404 9.70352C7.75267 9.56233 7.56103 9.48303 7.36123 9.48303H1.86923Z" fill="#909090"/>
</svg>
