<svg width="174" height="59" viewBox="0 0 174 59" fill="none" xmlns="http://www.w3.org/2000/svg">
<path fill-rule="evenodd" clip-rule="evenodd" d="M63.3809 12.1912C63.3809 5.45278 67.3707 0 74.9071 0C85.1033 0 85.7683 9.08797 85.7683 9.08797H79.5619C79.5619 9.08797 79.3402 4.65482 74.9071 4.65482C70.9616 4.65482 69.5873 8.02402 69.5873 12.1912C69.5873 16.3584 70.9616 19.7276 74.9071 19.7276C79.3402 19.7276 79.5619 15.2944 79.5619 15.2944H85.7683C85.7683 15.2944 85.1033 24.3824 74.9071 24.3824C67.3707 24.3824 63.3809 18.9296 63.3809 12.1912ZM93.7445 12.1912C93.7445 16.3584 95.3405 19.7276 99.286 19.7276C103.231 19.7276 104.827 16.3584 104.827 12.1912C104.827 8.02402 103.231 4.65482 99.286 4.65482C95.3405 4.65482 93.7445 8.02402 93.7445 12.1912ZM87.5381 12.1912C87.5381 5.45278 91.7053 0 99.286 0C106.867 0 111.034 5.45278 111.034 12.1912C111.034 18.9296 106.867 24.3824 99.286 24.3824C91.7053 24.3824 87.5381 18.9296 87.5381 12.1912ZM130.554 23.7174V18.8409H119.249V0.664973H113.043V23.7174H130.554ZM136.95 12.1912C136.95 16.3584 138.546 19.7276 142.492 19.7276C146.437 19.7276 148.033 16.3584 148.033 12.1912C148.033 8.02402 146.437 4.65482 142.492 4.65482C138.546 4.65482 136.95 8.02402 136.95 12.1912ZM130.744 12.1912C130.744 5.45278 134.911 0 142.492 0C150.073 0 154.24 5.45278 154.24 12.1912C154.24 18.9296 150.073 24.3824 142.492 24.3824C134.911 24.3824 130.744 18.9296 130.744 12.1912ZM162.647 13.6433L162.476 57.6306H156.492V54.5274H156.27C156.27 54.5274 154.275 58.2956 149.177 58.2956C142.527 58.2956 139.202 52.5325 139.202 46.1044C139.202 39.6763 142.527 33.9132 149.177 33.9132C154.053 33.9132 156.048 37.0164 156.048 37.0164H156.27L156.492 0.553711H162.698L162.688 3.02688C162.975 2.59402 164.567 0.558105 169.123 0.558105C169.845 0.558105 172.337 0.624543 174 1.00142V7.4295C174 7.4295 172.115 5.54541 168.236 6.09956C164.515 6.63116 162.782 9.40666 162.647 13.6433ZM156.492 46.1044C156.492 41.9372 154.718 38.568 150.95 38.568C147.182 38.568 145.409 41.9372 145.409 46.1044C145.409 50.2716 147.182 53.6408 150.95 53.6408C154.718 53.6408 156.492 50.2716 156.492 46.1044ZM109.253 34.5782V57.6306H103.046V34.5782H109.253ZM102.603 30.145C102.603 28.1944 104.199 26.5985 106.149 26.5985C108.1 26.5985 109.696 28.1944 109.696 30.145C109.696 32.0956 108.1 33.6916 106.149 33.6916C104.199 33.6916 102.603 32.0956 102.603 30.145ZM78.0075 57.6306V44.7744C78.0075 40.7846 77.2095 39.0113 74.7713 39.0113C72.1114 39.0113 70.6927 41.0063 70.6927 45.6611V57.6306H64.4863V34.5782H70.4711V38.3464H70.6927C70.6927 38.3464 72.2444 33.9132 76.8992 33.9132C80.623 33.9132 82.6179 35.6865 83.5046 38.3907L83.5489 38.3464H83.7706C83.7706 38.3464 85.7655 33.9132 90.4203 33.9132C96.1834 33.9132 97.735 38.1247 97.735 43.4445V57.6306H91.5286V44.7744C91.5286 40.7846 90.7306 39.0113 88.2924 39.0113C85.6325 39.0113 84.2139 41.0063 84.2139 45.6611V57.6306H78.0075ZM114.148 34.5782V57.6306H120.354V45.6611C120.354 41.0063 122.128 39.0113 125.453 39.0113C128.334 39.0113 129.442 40.7846 129.442 44.7744V57.6306H135.649V43.4445C135.649 38.1247 133.876 33.9132 127.448 33.9132C122.349 33.9132 120.354 38.3464 120.354 38.3464H120.133V34.5782H114.148Z" fill="#222222"/>
<path d="M40.0004 42.8857C40.0004 50.2542 34.9226 53.9385 29.259 53.9385C23.5953 53.9385 18.5176 50.2542 18.5176 42.8857" stroke="#FF58CF" stroke-width="7.40786"/>
<path d="M40.0004 24.9746C40.0004 32.3431 34.9226 36.0273 29.259 36.0273C23.5953 36.0273 18.5176 32.3431 18.5176 24.9746L18.5176 3.54597" stroke="#FF9E16" stroke-width="7.40786"/>
<path d="M47.9666 3.55762C45.6238 3.55762 43.707 5.4744 43.707 7.81714C43.707 10.1599 45.6238 12.0767 47.9666 12.0767C50.3093 12.0767 52.2261 10.1599 52.2261 7.81714C52.2261 5.4744 50.3093 3.55762 47.9666 3.55762Z" fill="#3858FF"/>
<path d="M4.25952 3.55762C1.91678 3.55762 0 5.4744 0 7.81714C0 10.1599 1.91678 12.0767 4.25952 12.0767C6.60226 12.0767 8.51904 10.1599 8.51904 7.81714C8.51904 5.4744 6.60226 3.55762 4.25952 3.55762Z" fill="#3858FF"/>
</svg>
