<svg width="22" height="30" viewBox="0 0 22 30" fill="none" xmlns="http://www.w3.org/2000/svg">
<path d="M20.707 14.2938L12.707 6.29376C12.5671 6.15395 12.389 6.05875 12.195 6.02018C12.0011 5.98161 11.8 6.00142 11.6173 6.07709C11.4346 6.15276 11.2785 6.2809 11.1686 6.4453C11.0587 6.60971 11 6.80301 11 7.00076V10.5458C8.26829 10.7986 5.72923 12.0616 3.87969 14.0878C2.03015 16.114 1.00327 18.7574 1 21.5008V23.0008C1.00016 23.2083 1.06491 23.4107 1.18527 23.5798C1.30564 23.749 1.47565 23.8764 1.67173 23.9446C1.8678 24.0127 2.08022 24.0182 2.27953 23.9601C2.47883 23.9021 2.65514 23.7835 2.784 23.6208C3.76385 22.4559 4.96594 21.4979 6.3201 20.8027C7.67426 20.1075 9.15334 19.689 10.671 19.5718C10.721 19.5658 10.846 19.5558 11 19.5458V23.0008C11 23.1985 11.0587 23.3918 11.1686 23.5562C11.2785 23.7206 11.4346 23.8488 11.6173 23.9244C11.8 24.0001 12.0011 24.0199 12.195 23.9813C12.389 23.9428 12.5671 23.8476 12.707 23.7078L20.707 15.7078C20.8945 15.5202 20.9998 15.2659 20.9998 15.0008C20.9998 14.7356 20.8945 14.4813 20.707 14.2938ZM13 20.5868V18.5008C13 18.2355 12.8946 17.9812 12.7071 17.7937C12.5196 17.6061 12.2652 17.5008 12 17.5008C11.745 17.5008 10.704 17.5508 10.438 17.5858C7.74279 17.8338 5.17727 18.8578 3.052 20.5338C3.29324 18.3282 4.33954 16.2891 5.99055 14.8069C7.64157 13.3247 9.78128 12.5036 12 12.5008C12.2652 12.5008 12.5196 12.3954 12.7071 12.2079C12.8946 12.0203 13 11.766 13 11.5008V9.41476L18.586 15.0008L13 20.5868Z" fill="#909090"/>
</svg>
