<svg width="44" height="40" viewBox="0 0 44 40" fill="none" xmlns="http://www.w3.org/2000/svg">
<path fill-rule="evenodd" clip-rule="evenodd" d="M3.01262 17.2517C14.8214 11.6245 22.6826 7.88542 26.6301 6.0714C37.8652 0.92552 40.227 0.0370208 41.7453 0C42.0827 0 42.8249 0.0740421 43.331 0.518291C43.7359 0.888499 43.8371 1.36977 43.9046 1.73998C43.972 2.11018 44.0395 2.88762 43.972 3.47995C43.3647 10.5139 40.7331 27.5805 39.3835 35.4289C38.81 38.7607 37.6966 39.8713 36.6169 39.9824C34.2551 40.2045 32.467 38.2795 30.2064 36.6505C26.6301 34.0961 24.6395 32.5042 21.1643 29.9868C17.1494 27.0992 19.7473 25.5073 22.0415 22.9158C22.6489 22.2495 33.0068 11.8837 33.2092 10.9581C33.243 10.8471 33.243 10.4028 33.0068 10.1807C32.7706 9.95858 32.4332 10.0326 32.1633 10.1067C31.7922 10.1807 26.124 14.327 15.0913 22.5086C13.4718 23.7303 12.021 24.3226 10.7052 24.2856C9.25438 24.2486 6.48776 23.3971 4.39593 22.6567C1.86549 21.7682 -0.158866 21.2869 0.00983065 19.7321C0.111048 18.9176 1.12322 18.1031 3.01262 17.2517Z" fill="#222222"/>
</svg>
